<?xml version="1.0" encoding="utf-8"?>
<svg version="1.1" xmlns="http://www.w3.org/2000/svg" xmlns:xlink="http://www.w3.org/1999/xlink" x="0px" y="0px"
	 viewBox="0 0 9.2 9.1" style="enable-background:new 0 0 9.2 9.1;" xml:space="preserve">
<style type="text/css">
	.st0{clip-path:url(#SVGID_00000001626090674658467680000009106778311834107071_);fill:#F1D22E;}
	.st1{clip-path:url(#SVGID_00000001626090674658467680000009106778311834107071_);fill:#FFFFFF;}
	
		.st2{clip-path:url(#SVGID_00000001626090674658467680000009106778311834107071_);fill:none;stroke:#000000;stroke-width:1.300000e-02;stroke-miterlimit:10;}
	.st3{clip-path:url(#SVGID_00000001626090674658467680000009106778311834107071_);fill:#5C3C97;}
</style>
<g>
	<defs>
		<rect id="SVGID_1_" width="9.1" height="9.1"/>
	</defs>
	<clipPath id="SVGID_00000100349907329005133530000006512592078699060864_">
		<use xlink:href="#SVGID_1_"  style="overflow:visible;"/>
	</clipPath>
	<path style="clip-path:url(#SVGID_00000100349907329005133530000006512592078699060864_);fill:#F1D22E;" d="M9.2,4.6
		C9.2,2,7.1,0,4.6,0S0,2,0,4.6c0,2.5,2,4.6,4.6,4.6S9.2,7.1,9.2,4.6"/>
	<polygon style="clip-path:url(#SVGID_00000100349907329005133530000006512592078699060864_);fill:#FFFFFF;" points="4,4.1 4.6,4.7 
		4.6,1.9 	"/>
	
		<polygon style="clip-path:url(#SVGID_00000100349907329005133530000006512592078699060864_);fill:none;stroke:#000000;stroke-width:1.300000e-02;stroke-miterlimit:10;" points="
		4,4.1 4.6,4.7 4.6,1.9 	"/>
	<polygon style="clip-path:url(#SVGID_00000100349907329005133530000006512592078699060864_);fill:#FFFFFF;" points="5.2,4.1 
		4.6,4.7 7.3,4.7 	"/>
	
		<polygon style="clip-path:url(#SVGID_00000100349907329005133530000006512592078699060864_);fill:none;stroke:#000000;stroke-width:1.300000e-02;stroke-miterlimit:10;" points="
		5.2,4.1 4.6,4.7 7.3,4.7 	"/>
	<polygon style="clip-path:url(#SVGID_00000100349907329005133530000006512592078699060864_);fill:#FFFFFF;" points="5.2,5.3 
		4.6,4.7 4.6,7.4 	"/>
	
		<polygon style="clip-path:url(#SVGID_00000100349907329005133530000006512592078699060864_);fill:none;stroke:#000000;stroke-width:1.300000e-02;stroke-miterlimit:10;" points="
		5.2,5.3 4.6,4.7 4.6,7.4 	"/>
	<polygon style="clip-path:url(#SVGID_00000100349907329005133530000006512592078699060864_);fill:#FFFFFF;" points="5.2,4 6.2,3.1 
		5.1,3.6 	"/>
	<polygon style="clip-path:url(#SVGID_00000100349907329005133530000006512592078699060864_);fill:#FFFFFF;" points="3.9,4.1 3,3.1 
		3.5,4.2 	"/>
	<polygon style="clip-path:url(#SVGID_00000100349907329005133530000006512592078699060864_);fill:#FFFFFF;" points="3.9,5.3 
		2.9,6.3 4,5.7 	"/>
	<polygon style="clip-path:url(#SVGID_00000100349907329005133530000006512592078699060864_);fill:#FFFFFF;" points="5.2,5.3 
		6.2,6.3 5.6,5.2 	"/>
	<polygon style="clip-path:url(#SVGID_00000100349907329005133530000006512592078699060864_);fill:#FFFFFF;" points="4,5.3 4.6,4.7 
		1.8,4.7 	"/>
	
		<polygon style="clip-path:url(#SVGID_00000100349907329005133530000006512592078699060864_);fill:none;stroke:#000000;stroke-width:1.300000e-02;stroke-miterlimit:10;" points="
		4,5.3 4.6,4.7 1.8,4.7 	"/>
	<path style="clip-path:url(#SVGID_00000100349907329005133530000006512592078699060864_);fill:#5C3C97;" d="M4.5,8.5
		C4.5,8.5,4.5,8.5,4.5,8.5L3.8,5.9L2.9,6.4c0,0,0,0,0,0c0,0,0,0,0,0c0,0-0.1-0.1-0.1-0.1l0.5-0.9L0.6,4.7c-0.1,0-0.1-0.1,0-0.1
		l2.6-0.7L2.8,3c0-0.1,0-0.1,0.1-0.1l0.9,0.5l0.7-2.6c0-0.1,0.1-0.1,0.1,0l0.7,2.6l0.9-0.5c0.1,0,0.1,0,0.1,0.1L5.8,3.9l2.5,0.7
		c0.1,0,0.1,0.1,0,0.2L5.8,5.4l0.5,0.9c0,0,0,0.1-0.1,0.1c0,0,0,0,0,0c0,0,0,0,0,0L5.3,5.9L4.5,8.5C4.6,8.5,4.6,8.5,4.5,8.5
		C4.5,8.5,4.5,8.5,4.5,8.5L4.5,8.5z M4.6,7.2l0.5-1.9L4.6,4.7L4,5.3L4.6,7.2z M3.1,6.2L4,5.6L3.9,5.3L3.6,5.3L3.1,6.2z M6.1,6.2
		L5.5,5.3L5.2,5.3L5.1,5.6L6.1,6.2z M3.9,5.2l0.6-0.5L3.9,4.2L2,4.7L3.9,5.2z M5.2,5.2l1.9-0.5L5.2,4.2L4.6,4.7L5.2,5.2z M4.6,4.7
		L5.1,4L4.6,2.1L4,4L4.6,4.7z M3.6,4.1L3.9,4L4,3.7L3.1,3.2L3.6,4.1z M5.5,4.1l0.5-0.9L5.1,3.7L5.2,4L5.5,4.1z"/>
	<path style="clip-path:url(#SVGID_00000100349907329005133530000006512592078699060864_);fill:#5C3C97;" d="M4.2,1.6
		C2.9,1.5,1.6,2.6,1.5,4c0,0.1,0,0.2,0,0.3c0,0,0-0.1,0-0.1c0,0,0-0.1,0-0.1l0-0.1c0.4-1,1.2-1.8,2.3-2.2C4,1.6,4.1,1.6,4.2,1.6
		L4.2,1.6z"/>
	<path style="clip-path:url(#SVGID_00000100349907329005133530000006512592078699060864_);fill:#5C3C97;" d="M7.7,4.3
		c0.1-1.3-1-2.6-2.3-2.7c-0.1,0-0.3,0-0.4,0c0.1,0,0.3,0.1,0.4,0.1C6.5,2.2,7.3,3.1,7.7,4.3"/>
	<path style="clip-path:url(#SVGID_00000100349907329005133530000006512592078699060864_);fill:#5C3C97;" d="M4.9,7.7
		c1.4,0.1,2.6-1.1,2.7-2.4c0-0.1,0-0.2,0-0.3c0,0,0,0.1,0,0.1c0,0.1-0.1,0.2-0.1,0.2C7.1,6.6,6.1,7.4,4.9,7.7"/>
	<path style="clip-path:url(#SVGID_00000100349907329005133530000006512592078699060864_);fill:#5C3C97;" d="M1.5,5.1
		C1.4,6.4,2.6,7.6,3.9,7.7c0.1,0,0.2,0,0.3,0c0,0-0.1,0-0.1,0C4,7.7,3.9,7.6,3.8,7.6C2.6,7.1,1.9,6.3,1.5,5.1"/>
	<path style="clip-path:url(#SVGID_00000100349907329005133530000006512592078699060864_);fill:#5C3C97;" d="M4.6,7.3
		c-0.1-1.8-0.1-3.6,0-5.4H4.5c0,1.3,0,2.7,0,4C4.5,6.4,4.5,6.8,4.6,7.3L4.6,7.3z"/>
	<path style="clip-path:url(#SVGID_00000100349907329005133530000006512592078699060864_);fill:#5C3C97;" d="M1.9,4.7
		c1.8-0.1,3.6-0.1,5.4,0V4.6c-1.3,0-2.7,0-4,0C2.8,4.7,2.3,4.6,1.9,4.7L1.9,4.7z"/>
</g>
</svg>
