<?xml version="1.0" encoding="utf-8"?>
<svg version="1.1" xmlns="http://www.w3.org/2000/svg" xmlns:xlink="http://www.w3.org/1999/xlink" x="0px" y="0px"
	 viewBox="0 0 16.4 15.4" style="enable-background:new 0 0 16.4 15.4;" xml:space="preserve">
<style type="text/css">
	.st0{fill:#FFFFFF;}
	.st1{clip-path:url(#SVGID_00000117654921963577690000000000620706991226283144_);}
	.st2{clip-path:url(#SVGID_00000117654921963577690000000000620706991226283144_);fill:#FFFFFF;}
</style>
<rect x="7.3" y="4.1" class="st0" width="1.9" height="1.2"/>
<polygon class="st0" points="8.4,5.2 9.9,4.2 12.4,3.6 14.2,4 15.4,5.6 14.8,7.1 14.2,8.1 13.5,9.1 12,9.5 10.4,9.1 8.3,7.7 "/>
<polygon class="st0" points="8,5.3 6.5,4.3 4,3.6 1.9,4 1,5.6 1.3,7.2 2.2,8.1 2.9,9.2 4.4,9.6 6,9.2 8.1,7.7 "/>
<polygon class="st0" points="5.7,9.6 5.7,10.5 6.5,12 9.8,11.8 10.4,10.9 10.6,9.6 8.2,8.9 "/>
<g>
	<defs>
		<rect id="SVGID_1_" width="16.4" height="15.4"/>
	</defs>
	<clipPath id="SVGID_00000058584437427488339660000012420634334772501682_">
		<use xlink:href="#SVGID_1_"  style="overflow:visible;"/>
	</clipPath>
	<path style="clip-path:url(#SVGID_00000058584437427488339660000012420634334772501682_);" d="M8.3,14.6L8.3,14.6
		c-0.1,0-0.1,0-0.1,0l0,0l0,0c0,0,0,0-0.1,0l0,0l0,0c0,0,0,0,0-0.1l0,0l0-0.1c0,0,0,0,0-0.1C7.8,13.1,7.5,13,7.5,13c0,0,0,0,0,0
		c-1.1-0.4-1.9-1.6-2.2-3.2C5,9.9,4.7,10,4.4,10c-0.8,0-1.5-0.4-2-1.1C2.3,8.8,2.2,8.6,2.1,8.4C1.5,8,1,7.4,0.9,6.7
		c-0.2-0.9,0-1.9,0.6-2.6C1.6,4,1.8,3.8,1.9,3.7C2.5,3.3,3.2,3.1,4,3.1c0.8,0,1.5,0.2,2,0.4c0,0,0,0,0,0c0-0.5,0.4-1.1,0.6-1.3
		L6.3,1.6c0,0,0,0,0,0c0,0,0,0,0,0c0,0,0,0,0,0C6.2,1.6,6.1,1.6,6,1.6c-0.1,0-0.3-0.1-0.4-0.2C5.6,1.3,5.6,1.2,5.6,1.1
		c0-0.1,0.1-0.2,0.2-0.3c0.1-0.1,0.3-0.1,0.5-0.1c0.1,0,0.1,0,0.2,0C6.7,0.8,6.9,0.9,7,1.2l0.3,0.4c0.3-0.2,0.6-0.3,0.6-0.4
		C8,1.2,8.2,1.1,8.3,1.1c0.1,0,0.2,0,0.4,0.1c0,0,0.3,0.2,0.6,0.4l0.3-0.4c0.1-0.2,0.3-0.3,0.5-0.4c0.1,0,0.1,0,0.2,0
		c0.2,0,0.3,0,0.5,0.1C11,1,11.1,1.2,10.9,1.4c-0.1,0.1-0.2,0.2-0.4,0.2c-0.1,0-0.2,0-0.2-0.1c0,0,0,0,0,0c0,0,0,0,0,0L9.9,2.1
		c0.2,0.3,0.6,0.9,0.6,1.3c0.6-0.2,1.2-0.3,1.7-0.3c0.8,0,1.5,0.2,2.1,0.6c0.2,0.1,0.3,0.2,0.5,0.4c0.7,0.7,0.9,1.6,0.7,2.5
		c-0.1,0.7-0.5,1.2-1.1,1.5c0,0,0,0.1,0,0.1c-0.1,0.2-0.2,0.5-0.3,0.6c-0.5,0.7-1.1,1-2,1c-0.2,0-0.4,0-0.7-0.1
		c-0.1,0-0.2,0-0.3-0.1c-0.3,1.6-1.1,2.8-2.2,3.2l0,0c-0.1,0.1-0.3,0.4-0.4,1.2c0,0,0,0.1,0,0.1l0,0l0,0c0,0,0,0.1,0,0.1
		c0,0,0,0,0,0.1c0,0-0.1,0-0.1,0.1c0,0,0,0-0.1,0c0,0-0.1,0-0.1,0C8.4,14.6,8.3,14.6,8.3,14.6L8.3,14.6L8.3,14.6z M6.2,10.1
		c0.1,0.4,0.2,0.7,0.3,0.9c0.4-0.3,1.1-0.5,1.7-0.5c0.6,0,1.2,0.2,1.7,0.5c0.2-0.3,0.2-0.5,0.3-0.9C9.7,9.7,9,9.5,8.3,9.5h0
		C7.6,9.5,6.9,9.7,6.2,10.1 M11.1,8.9c0.4,0.2,0.7,0.2,1.1,0.2c0.5,0,1-0.2,1.3-0.7c0.1-0.1,0.2-0.2,0.2-0.4c0,0,0,0,0-0.1
		c0.1-0.3,0.1-0.7,0-1c0-0.1-0.1-0.2-0.2-0.3c-0.6-0.8-1.8-1.3-3.1-1.3c-0.4,0-0.9,0.1-1.3,0.2L9,5.5c-0.2,0-0.3,0.1-0.3,0.1
		c-0.1,1.7,1.9,3,1.9,3c0,0,0,0,0,0C10.6,8.6,10.8,8.7,11.1,8.9C11.1,8.9,11.1,8.9,11.1,8.9 M2.9,8C2.9,8.2,3,8.3,3.1,8.4
		c0.3,0.5,0.8,0.7,1.3,0.7c0.4,0,0.8-0.1,1.1-0.2l0,0C5.8,8.7,6,8.6,6,8.6c0,0,0,0,0.1,0c1.2-0.6,1.8-2.3,1.9-3
		c-0.1,0-0.2,0-0.3-0.1l-0.1,0C7.1,5.3,6.6,5.3,6.2,5.3c-1.2,0-2.3,0.1-3,1C3.1,6.4,3,6.6,2.9,6.7C2.8,7.1,2.7,7.6,2.9,8
		C2.9,8,2.9,8,2.9,8 M4.1,4C3.4,4,2.9,4.1,2.4,4.4C2.3,4.5,2.2,4.6,2.1,4.7C1.5,5.3,1.6,6.2,1.7,6.5C1.7,6.7,1.8,7,2,7.2
		c0-0.3,0.1-0.6,0.2-0.8c0.1-0.2,0.3-0.5,0.4-0.6c0.7-0.9,1.8-1.4,3.2-1.4c0.1,0,0.2,0,0.4,0C5.4,4.1,4.7,4,4.1,4 M10.4,4.5
		c1.6,0,3.1,0.6,3.8,1.6c0.1,0.2,0.2,0.3,0.3,0.5c0.1,0.2,0.1,0.4,0.2,0.5c0.1-0.2,0.2-0.4,0.2-0.6c0.1-0.5,0-1.3-0.6-1.9
		c-0.1-0.1-0.2-0.2-0.3-0.3c-0.5-0.3-1-0.4-1.5-0.4C11.8,3.9,11.1,4.1,10.4,4.5L10.4,4.5"/>
	<path style="clip-path:url(#SVGID_00000058584437427488339660000012420634334772501682_);fill:#FFFFFF;" d="M10.3,0.9
		c0.1,0,0.3,0,0.4,0.1c0.1,0.1,0.1,0.2,0.1,0.3c0,0.1-0.1,0.1-0.2,0.1c0,0-0.1,0-0.1,0c0,0-0.1,0-0.1,0c0,0,0,0-0.1,0
		c-0.1,0-0.1,0.1-0.2,0.1L9.7,2.1c0,0,0,0,0,0c0,0,0,0,0,0c0,0,0,0,0,0c0,0,0,0,0,0c0,0,0,0,0,0c0,0,0,0,0,0c0,0,0,0,0,0
		c0.3,0.4,0.7,0.9,0.7,1.3c0,0.1,0,0.3-0.2,0.4c0.7-0.3,1.4-0.5,2.1-0.5c0.7,0,1.3,0.2,2,0.6c0.2,0.1,0.3,0.2,0.4,0.4
		c0.6,0.6,0.9,1.4,0.7,2.3c-0.1,0.7-0.6,1.2-1,1.4c-0.1,0.2-0.2,0.6-0.3,0.7c-0.4,0.6-1.1,1-1.8,1c-0.2,0-0.4,0-0.6-0.1
		c-0.2,0-0.3-0.1-0.5-0.1c-0.3,1.6-1.1,2.9-2.1,3.3c0,0-0.4,0.1-0.5,1.4v0c0,0,0,0,0,0c0,0,0,0,0,0c0,0,0,0,0,0c0,0,0,0,0,0
		c0,0,0,0,0,0c0,0,0,0,0,0c0,0,0,0,0,0c0,0,0,0,0,0h0h0c0,0,0,0,0,0c0,0,0,0,0,0c0,0,0,0,0,0c0,0,0,0,0,0c0,0,0,0,0,0c0,0,0,0,0,0
		c0,0,0,0,0,0c0,0,0,0,0,0v0c-0.2-1.4-0.5-1.4-0.5-1.4c-1-0.4-1.9-1.6-2.1-3.3C5.2,9.7,4.8,9.7,4.4,9.7c-0.6,0-1.3-0.2-1.8-1
		C2.5,8.6,2.4,8.4,2.3,8.3C1.7,7.9,1.2,7.3,1.1,6.6c-0.2-0.9,0-1.8,0.6-2.4C1.8,4.1,1.9,4,2.1,3.9c0.6-0.4,1.3-0.6,2-0.6
		c0.8,0,1.7,0.2,2.4,0.5C6.3,3.8,6.3,3.6,6.3,3.5c0-0.4,0.3-0.9,0.6-1.3c0,0,0,0,0,0c0,0,0,0,0,0s0,0,0,0L6.5,1.5
		c0-0.1-0.1-0.1-0.2-0.1c0,0,0,0-0.1,0c0,0-0.1,0-0.1,0c0,0-0.1,0-0.1,0c-0.1,0-0.1,0-0.2-0.1C5.8,1.2,5.8,1.1,5.9,1
		C6,0.9,6.1,0.9,6.3,0.9c0.1,0,0.1,0,0.2,0c0.2,0,0.3,0.2,0.4,0.3l0.4,0.6C7.5,1.7,8,1.4,8,1.4c0.1-0.1,0.2-0.1,0.3-0.1
		c0.1,0,0.2,0,0.3,0.1c0,0,0.5,0.3,0.8,0.5l0.4-0.6C9.8,1.1,10,1,10.2,0.9C10.2,0.9,10.3,0.9,10.3,0.9 M9.4,4.8
		c0.3-0.1,0.7-0.1,1-0.1c1.4,0,2.9,0.5,3.7,1.6c0.1,0.1,0.2,0.3,0.3,0.5c0.2,0.4,0.2,0.6,0.1,0.9C14.8,7.3,15,7,15.1,6.6
		c0.1-0.6,0-1.4-0.6-2c-0.1-0.1-0.2-0.2-0.4-0.3c-0.5-0.3-1.1-0.5-1.7-0.5c-0.8,0-1.7,0.3-2.4,0.7C9.8,4.5,9.6,4.6,9.4,4.8 M2.1,7.7
		c0-0.3,0.1-0.9,0.2-1.2C2.4,6.3,2.6,6,2.7,5.9c0.7-1,1.9-1.3,3.1-1.3c0.5,0,1,0.1,1.4,0.1C7,4.6,6.8,4.5,6.6,4.4c0,0,0,0,0,0
		C5.9,4,5,3.7,4.1,3.7c-0.6,0-1.2,0.1-1.8,0.5C2.2,4.3,2.1,4.4,1.9,4.5C1.4,5.2,1.4,6,1.5,6.5C1.6,7,1.8,7.4,2.1,7.7 M4.4,9.3
		c0.4,0,0.8-0.1,1.2-0.3c0,0,0,0,0,0c0.3-0.1,0.5-0.3,0.5-0.3c0,0,0,0,0,0c1.3-0.6,2-2.6,2-3.4C8,5.4,7.9,5.3,7.6,5.3l-0.1,0
		C7.1,5.1,6.7,5.1,6.2,5.1C4.9,5.1,3.8,5.2,3,6.1C3,6.3,2.8,6.5,2.8,6.6C2.6,7,2.5,7.6,2.6,8c0,0,0,0,0,0.1c0.1,0.1,0.1,0.3,0.2,0.4
		C3.3,9.1,3.9,9.3,4.4,9.3 M12.2,9.3c0.5,0,1.1-0.2,1.5-0.8c0.1-0.1,0.2-0.3,0.2-0.4c0,0,0,0,0,0c0.1-0.4,0.1-0.8,0-1.2
		c-0.1-0.1-0.1-0.3-0.2-0.4c-0.7-1-2.1-1.4-3.3-1.4c-0.5,0-0.9,0.1-1.3,0.2L9,5.3C8.7,5.3,8.6,5.4,8.5,5.4c-0.3,1.9,1.9,3.3,2,3.4
		c0,0,0,0,0,0c0,0,0.2,0.1,0.5,0.3c0,0,0,0,0,0C11.4,9.2,11.8,9.3,12.2,9.3 M7.5,8c0.3,0,0.5-0.1,0.7-0.1c0.2,0,0.4,0,0.6,0.1
		c0-0.2-0.3-0.2-0.6-0.2C7.9,7.7,7.6,7.8,7.5,8 M6.5,11.3C7,11,7.7,10.7,8.3,10.7h0h0c0.6,0,1.3,0.2,1.8,0.5
		c0.3-0.4,0.3-0.7,0.5-1.2C9.9,9.5,9.1,9.3,8.3,9.3h0h0C7.5,9.3,6.7,9.5,6,10C6.2,10.6,6.2,10.9,6.5,11.3 M6.9,2.2
		C6.9,2.2,6.9,2.2,6.9,2.2C6.9,2.2,6.9,2.2,6.9,2.2 M10.3,0.5c-0.1,0-0.2,0-0.3,0C9.8,0.6,9.5,0.8,9.4,1L9.2,1.3C9,1.1,8.8,1,8.8,1
		C8.6,1,8.5,0.9,8.3,0.9C8.2,0.9,8,1,7.8,1c0,0-0.2,0.1-0.5,0.3L7.2,1C7.1,0.8,6.8,0.6,6.5,0.5c-0.1,0-0.2,0-0.3,0
		C6,0.5,5.8,0.6,5.7,0.7C5.5,0.8,5.4,0.9,5.4,1.1c0,0.2,0,0.3,0.1,0.5C5.6,1.7,5.8,1.8,6,1.8c0.1,0,0.1,0,0.2,0l0.2,0.3
		C6.2,2.4,6,2.8,5.9,3.2C5.4,3.1,4.7,2.9,4,2.9c-0.8,0-1.6,0.2-2.2,0.6C1.6,3.7,1.5,3.8,1.3,4C0.7,4.7,0.4,5.7,0.7,6.7
		C0.8,7.5,1.3,8.1,2,8.6C2,8.7,2.1,8.9,2.2,9c0.5,0.7,1.3,1.1,2.2,1.1c0.3,0,0.5,0,0.8-0.1c0.3,1.5,1.1,2.6,2.1,3l0,0l0.1,0.1
		c0,0.1,0.2,0.3,0.3,1v0l0,0c0,0,0,0,0,0.1c0,0,0,0.1,0,0.1c0,0.1,0,0.1,0.1,0.1c0,0,0,0.1,0.1,0.1c0,0,0.1,0.1,0.1,0.1
		c0,0,0.1,0,0.1,0.1c0.1,0,0.1,0,0.1,0c0,0,0.1,0,0.1,0l0,0l0,0c0,0,0.1,0,0.1,0c0,0,0.1,0,0.1,0c0,0,0.1,0,0.1-0.1
		c0,0,0.1,0,0.1-0.1c0,0,0.1-0.1,0.1-0.1c0,0,0-0.1,0.1-0.1c0,0,0-0.1,0-0.1c0,0,0,0,0-0.1l0,0v0c0-0.8,0.2-1,0.2-1
		c1.1-0.4,1.9-1.6,2.3-3.1c0,0,0.1,0,0.1,0c0.2,0.1,0.5,0.1,0.7,0.1c0.9,0,1.6-0.4,2.1-1.1c0.1-0.2,0.2-0.4,0.3-0.7c0,0,0,0,0,0
		c0.6-0.4,1-1,1.1-1.6c0.2-1,0-1.9-0.8-2.7c-0.2-0.2-0.3-0.3-0.5-0.4C13.8,3.2,13.1,3,12.3,3c-0.5,0-1,0.1-1.6,0.3
		c-0.1-0.4-0.3-0.8-0.6-1.1l0.2-0.3c0.1,0,0.1,0,0.2,0c0.2,0,0.4-0.1,0.5-0.3c0.2-0.3,0.1-0.7-0.2-0.9C10.8,0.6,10.5,0.5,10.3,0.5
		 M11.3,4.3c0.4-0.1,0.8-0.2,1.1-0.2c0.5,0,1,0.1,1.4,0.4c0.1,0.1,0.2,0.2,0.3,0.2c0.5,0.5,0.6,1.2,0.5,1.7l0,0l0,0
		c-0.1-0.2-0.2-0.3-0.3-0.5C13.7,5.1,12.6,4.5,11.3,4.3 M1.9,6.5C1.9,6.5,1.9,6.5,1.9,6.5L1.9,6.5L1.9,6.5C1.8,6,1.8,5.3,2.2,4.8
		c0.1-0.1,0.2-0.2,0.3-0.2c0.4-0.3,0.9-0.4,1.5-0.4c0.3,0,0.6,0,0.9,0.1c-1.1,0.2-2,0.6-2.6,1.4C2.3,5.8,2.1,6.1,2,6.3
		C2,6.4,1.9,6.4,1.9,6.5 M3,7.9C3,7.6,3,7.1,3.1,6.8c0-0.1,0.2-0.3,0.2-0.4c0.6-0.8,1.5-0.9,2.8-0.9c0.4,0,0.8,0.1,1.2,0.1l0.1,0
		c0.1,0,0.1,0,0.2,0C7.5,6.5,6.9,7.9,5.9,8.4c0,0-0.1,0-0.1,0.1c0,0-0.2,0.1-0.4,0.2c0,0,0,0-0.1,0C5,8.8,4.7,8.9,4.4,8.9
		c-0.5,0-0.8-0.2-1.1-0.6l0,0l0,0C3.2,8.2,3.1,8.1,3.1,8C3.1,7.9,3,7.9,3,7.9 M8.9,5.7c0.1,0,0.1,0,0.2,0l0.1,0
		c0.4-0.1,0.8-0.2,1.2-0.2c1.3,0,2.4,0.5,3,1.2c0.1,0.1,0.1,0.2,0.2,0.3c0.1,0.3,0.1,0.6,0,0.9c0,0,0,0,0,0.1c0,0.1-0.1,0.2-0.2,0.3
		l0,0l0,0c-0.3,0.4-0.7,0.6-1.1,0.6c-0.3,0-0.6-0.1-1-0.2c0,0,0,0-0.1,0c-0.3-0.1-0.4-0.2-0.4-0.2c0,0,0,0-0.1,0
		C10.6,8.3,8.9,7.2,8.9,5.7 M6.5,10.2C7,9.9,7.7,9.7,8.3,9.7h0c0.6,0,1.2,0.2,1.8,0.5c-0.1,0.2-0.1,0.3-0.2,0.5
		c-0.5-0.2-1.1-0.4-1.6-0.4c-0.6,0-1.2,0.2-1.6,0.4C6.6,10.6,6.5,10.4,6.5,10.2"/>
	<path style="clip-path:url(#SVGID_00000058584437427488339660000012420634334772501682_);" d="M10.8,1.2c0,0.2-0.1,0.3-0.3,0.3
		c-0.2,0-0.3-0.1-0.3-0.3c0-0.2,0.1-0.3,0.3-0.3C10.7,0.9,10.8,1.1,10.8,1.2"/>
	<path style="clip-path:url(#SVGID_00000058584437427488339660000012420634334772501682_);" d="M6.2,1.3c0,0.2-0.1,0.3-0.3,0.3
		c-0.2,0-0.3-0.1-0.3-0.3C5.6,1.1,5.7,1,5.9,1C6,1,6.2,1.1,6.2,1.3"/>
</g>
</svg>
