<?xml version="1.0" encoding="utf-8"?>
<svg version="1.1" xmlns="http://www.w3.org/2000/svg" xmlns:xlink="http://www.w3.org/1999/xlink" x="0px" y="0px"
	 viewBox="0 0 15.5 16.1" style="enable-background:new 0 0 15.5 16.1;" xml:space="preserve">
<style type="text/css">
	.st0{fill:#DD87B8;}
	.st1{clip-path:url(#SVGID_00000046325843486957326620000011727013457500791476_);fill:#BC4D9C;}
	.st2{clip-path:url(#SVGID_00000046325843486957326620000011727013457500791476_);fill:#DD87B8;}
	
		.st3{clip-path:url(#SVGID_00000046325843486957326620000011727013457500791476_);fill:none;stroke:#DD87B8;stroke-width:0.241;stroke-miterlimit:10;}
	.st4{clip-path:url(#SVGID_00000046325843486957326620000011727013457500791476_);fill:#FFFFFF;}
	
		.st5{clip-path:url(#SVGID_00000046325843486957326620000011727013457500791476_);fill:none;stroke:#BC4D9C;stroke-width:0.599;stroke-miterlimit:10;}
</style>
<polygon class="st0" points="0.9,8.4 1.6,6.7 1.5,5 3.4,5.4 2.7,3.2 4.3,2.8 5.2,1.7 6.7,3.1 7.4,1.3 8.7,2.2 10.4,1.9 10.4,3.8 
	12.1,3.1 12.7,4.5 13.8,5.4 13.8,6.3 12.2,7 14.4,7.7 14.5,8.6 13.7,9.2 14,10.8 11.7,10.8 12.6,12.5 11.2,13.1 10.4,14.4 9.5,14.3 
	8.5,12.5 8.1,14.8 6.4,14.1 4.8,14.3 5.1,12.1 2.9,13 2.4,11.6 1.2,10.5 3,9 "/>
<g>
	<defs>
		<rect id="SVGID_1_" width="15.5" height="16.1"/>
	</defs>
	<clipPath id="SVGID_00000021826683102837127720000003139523363788138427_">
		<use xlink:href="#SVGID_1_"  style="overflow:visible;"/>
	</clipPath>
	<path style="clip-path:url(#SVGID_00000021826683102837127720000003139523363788138427_);fill:#BC4D9C;" d="M13.8,7
		c-0.3,0-0.6,0-0.8,0c0.2-0.1,0.5-0.2,0.8-0.4c0.4-0.2,0.6-0.5,0.6-0.9c0-0.4-0.2-0.7-0.5-0.9c-0.2-0.1-0.5-0.2-0.7-0.3
		c0-0.3,0-0.6,0-0.8c-0.1-0.4-0.3-0.7-0.7-0.8C12,2.6,11.6,2.7,11.3,3c-0.2,0.2-0.4,0.4-0.6,0.5c0.1-0.2,0.2-0.5,0.3-0.8l0,0
		c0.1-0.4,0-0.8-0.2-1.1c-0.3-0.3-0.7-0.4-1-0.3C9.4,1.4,9.1,1.5,8.9,1.6C8.7,1.4,8.5,1.2,8.3,1C8,0.8,7.6,0.8,7.2,0.9
		C6.9,1.1,6.6,1.4,6.6,1.9c0,0.3,0,0.6,0,0.8C6.4,2.4,6.3,2.2,6.2,1.9C6,1.6,5.6,1.3,5.2,1.3c-0.4,0-0.7,0.2-0.9,0.5
		C4.2,2.1,4,2.3,3.9,2.6c-0.3,0-0.6,0-0.8,0C2.7,2.7,2.4,2.9,2.3,3.3C2.2,3.7,2.2,4.1,2.5,4.4C2.7,4.6,2.9,4.8,3.1,5
		C2.8,4.9,2.5,4.8,2.3,4.7C1.9,4.6,1.5,4.7,1.2,5C0.9,5.2,0.8,5.6,0.9,6C0.9,6.3,1,6.5,1.1,6.8C0.9,7,0.8,7.2,0.6,7.4
		C0.4,7.7,0.3,8.1,0.5,8.4C0.6,8.8,1,9,1.4,9.1c0.3,0,0.6,0,0.8,0.1C2,9.2,1.7,9.4,1.5,9.5C1.1,9.7,0.9,10,0.9,10.4
		c0,0.4,0.2,0.7,0.5,0.9c0.2,0.1,0.5,0.2,0.7,0.3c0,0.3,0,0.6,0,0.8c0.1,0.4,0.3,0.7,0.7,0.8c0.1,0,0.2,0.1,0.4,0.1
		c0.3,0,0.5-0.1,0.7-0.3c0.2-0.2,0.4-0.4,0.6-0.5c-0.1,0.2-0.2,0.5-0.3,0.8l0,0c-0.1,0.4,0,0.8,0.2,1.1c0.3,0.3,0.7,0.4,1,0.3
		c0.3-0.1,0.5-0.2,0.8-0.3c0.2,0.2,0.4,0.4,0.6,0.6c0.2,0.1,0.4,0.2,0.6,0.2c0.1,0,0.3,0,0.4-0.1c0.4-0.2,0.6-0.5,0.6-0.9
		c0-0.3,0-0.6,0-0.8c0.1,0.2,0.2,0.5,0.4,0.8c0.2,0.4,0.5,0.6,0.9,0.6c0,0,0,0,0,0c0.4,0,0.7-0.2,0.9-0.5c0.1-0.2,0.2-0.5,0.3-0.7
		c0.3,0,0.6,0,0.8,0c0.4-0.1,0.7-0.3,0.8-0.7c0.1-0.4,0.1-0.8-0.2-1.1c-0.2-0.2-0.4-0.4-0.5-0.6c0.2,0.1,0.5,0.2,0.8,0.3
		c0.1,0,0.2,0.1,0.4,0.1c0.3,0,0.5-0.1,0.7-0.3c0.3-0.3,0.4-0.7,0.3-1c-0.1-0.3-0.2-0.5-0.3-0.8c0.2-0.2,0.4-0.4,0.6-0.6
		c0.2-0.3,0.3-0.7,0.1-1.1C14.6,7.3,14.2,7.1,13.8,7z M11.8,3.6L11.8,3.6c0.1-0.1,0.3-0.1,0.3-0.1c0.1,0,0.1,0.1,0.2,0.2
		c0,0.3,0,0.6,0,1c0,0.2,0.1,0.4,0.3,0.4c0.3,0.1,0.6,0.2,0.9,0.4c0.1,0.1,0.1,0.2,0.1,0.2c0,0,0,0.2-0.2,0.2l0,0
		C12,6.6,11,7,10,7.2L9.7,7.2C9.5,6.9,9.4,6.7,9.1,6.5l0.2-0.3C9.9,5.3,10.7,4.5,11.8,3.6z M6.2,8.1c0-0.8,0.6-1.4,1.4-1.4
		C8.4,6.6,9,7.3,9,8.1c0,0.8-0.6,1.4-1.4,1.4C6.8,9.5,6.2,8.8,6.2,8.1 M7.4,1.9c0-0.2,0.1-0.2,0.2-0.2c0,0,0.1,0,0.2,0
		C8,1.9,8.3,2.1,8.5,2.3C8.6,2.5,8.8,2.5,9,2.4c0.3-0.2,0.6-0.3,0.9-0.4c0.1,0,0.2,0,0.2,0.1c0,0,0.1,0.1,0.1,0.3l0,0
		C9.7,3.9,9.2,4.9,8.7,5.8L8.5,6C8.2,5.9,7.9,5.8,7.6,5.8c0,0,0,0,0,0L7.5,5.5C7.3,4.5,7.3,3.4,7.4,1.9L7.4,1.9z M3,3.6
		c0-0.1,0.1-0.1,0.2-0.2c0.3,0,0.6,0,1,0c0.2,0,0.4-0.1,0.4-0.3C4.7,2.8,4.8,2.5,5,2.2c0.1-0.1,0.2-0.1,0.2-0.1c0,0,0.2,0,0.2,0.2
		l0,0c0.7,1.3,1.1,2.4,1.3,3.4L6.8,6C6.5,6.1,6.2,6.3,6,6.5L5.8,6.3c0,0,0,0,0,0C4.9,5.8,4.1,5,3.1,3.9l0,0C3,3.7,3,3.6,3,3.6z
		 M1.5,8.3C1.5,8.3,1.5,8.3,1.5,8.3c-0.2,0-0.2-0.1-0.3-0.2c0-0.1,0-0.1,0-0.2c0.2-0.2,0.4-0.5,0.7-0.7C2,7.1,2.1,6.8,2,6.7
		C1.8,6.4,1.7,6.1,1.6,5.8c0-0.1,0-0.2,0.1-0.2c0,0,0.1-0.1,0.2-0.1c0,0,0.1,0,0.1,0l0,0C3.4,6,4.4,6.4,5.3,7c0,0,0,0,0,0l0.3,0.2
		C5.5,7.4,5.4,7.7,5.4,8.1c0,0,0,0,0,0L5.1,8.1C4.1,8.4,3,8.4,1.5,8.3 M3.4,12.5L3.4,12.5c-0.1,0.1-0.3,0.1-0.3,0.1
		c-0.1,0-0.1-0.1-0.2-0.2c0-0.3,0-0.6,0-1c0-0.2-0.1-0.4-0.3-0.4c-0.3-0.1-0.6-0.2-0.9-0.4c-0.1-0.1-0.1-0.2-0.1-0.2
		c0,0,0-0.2,0.2-0.2l0,0c1.3-0.7,2.4-1.1,3.4-1.3l0.3-0.1c0.1,0.3,0.3,0.6,0.5,0.8L5.9,9.9C5.3,10.8,4.6,11.6,3.4,12.5z M7.8,14.2
		c0,0.2-0.1,0.2-0.2,0.2c0,0-0.1,0-0.2,0c-0.2-0.2-0.5-0.4-0.7-0.7c-0.1-0.1-0.2-0.1-0.3-0.1c-0.1,0-0.1,0-0.2,0
		c-0.3,0.2-0.6,0.3-0.9,0.4c-0.1,0-0.2,0-0.2-0.1c0,0-0.1-0.1-0.1-0.3l0,0c0.5-1.4,0.9-2.4,1.5-3.3l0.2-0.3c0.3,0.1,0.6,0.2,0.9,0.2
		c0,0,0,0,0,0l0.1,0.3C7.9,11.6,7.9,12.7,7.8,14.2L7.8,14.2z M12.2,12.5c0,0.1-0.1,0.1-0.2,0.2c-0.3,0-0.6,0-1,0
		c-0.2,0-0.4,0.1-0.4,0.3c-0.1,0.3-0.2,0.6-0.4,0.9C10.2,14,10.1,14,10,14c0,0-0.2,0-0.2-0.2l0,0c-0.7-1.3-1.1-2.4-1.3-3.4l-0.1-0.3
		C8.7,10,9,9.8,9.2,9.6l0.3,0.2h0c0.9,0.6,1.7,1.3,2.6,2.5l0,0C12.2,12.4,12.2,12.5,12.2,12.5z M14,8.2c-0.2,0.2-0.4,0.5-0.7,0.7
		c-0.1,0.1-0.2,0.3-0.1,0.5c0.2,0.3,0.3,0.6,0.4,0.9c0,0.1,0,0.2-0.1,0.2c0,0-0.1,0.1-0.3,0.1l0,0c-1.4-0.5-2.4-0.9-3.3-1.5
		c0,0,0,0,0,0L9.6,8.9c0.1-0.3,0.2-0.6,0.2-0.9c0,0,0,0,0,0L10.1,8h0c1-0.2,2.1-0.2,3.6-0.1c0,0,0,0,0,0C13.9,7.8,14,8,14,8
		C14,8.1,14.1,8.1,14,8.2z"/>
	<path style="clip-path:url(#SVGID_00000021826683102837127720000003139523363788138427_);fill:#DD87B8;" d="M9.6,7.3
		C9.4,7,9.3,6.8,9.1,6.6L9,6.5l0.2-0.4c0.6-0.9,1.3-1.7,2.5-2.7l0,0c0.1-0.1,0.2-0.1,0.3-0.1c0.1,0,0.1,0,0.1,0
		c0.1,0,0.2,0.2,0.2,0.3c0,0.3,0,0.6,0,1c0,0.1,0.1,0.3,0.2,0.3c0.3,0.1,0.6,0.2,0.9,0.4c0.1,0.1,0.2,0.2,0.2,0.3
		c0,0.1,0,0.2-0.2,0.4l0,0C12.1,6.7,11,7.1,10,7.3L9.6,7.3L9.6,7.3z"/>
	<path style="clip-path:url(#SVGID_00000021826683102837127720000003139523363788138427_);fill:#DD87B8;" d="M12,3.5
		c0,0,0.1,0,0.1,0c0,0,0.1,0.1,0.2,0.2c0,0.3,0,0.6,0,1c0,0.2,0.1,0.4,0.3,0.4c0.3,0.1,0.6,0.2,0.9,0.4c0.1,0.1,0.1,0.2,0.1,0.2
		c0,0,0,0.2-0.2,0.2l0,0C12,6.6,11,7,10,7.2L9.7,7.2C9.5,6.9,9.4,6.7,9.2,6.5l0.2-0.3c0.6-0.9,1.3-1.7,2.5-2.6l0,0
		C11.9,3.5,11.9,3.5,12,3.5 M12,3.2L12,3.2c-0.1,0-0.2,0-0.4,0.1l0,0l0,0c-1.1,1-1.9,1.8-2.5,2.7L9,6.3L8.8,6.5L9,6.6
		c0.2,0.2,0.4,0.4,0.5,0.7l0.1,0.2l0.2,0L10,7.4c1-0.2,2.1-0.6,3.4-1.3l0,0c0.1-0.1,0.2-0.1,0.2-0.2c0-0.1,0-0.2,0.1-0.2
		c0-0.2-0.1-0.3-0.2-0.4c-0.3-0.2-0.6-0.3-0.9-0.4c-0.1,0-0.1-0.1-0.1-0.2c0-0.4,0-0.7,0-1c0-0.2-0.1-0.3-0.3-0.4
		C12.1,3.3,12.1,3.2,12,3.2"/>
	<path style="clip-path:url(#SVGID_00000021826683102837127720000003139523363788138427_);fill:#DD87B8;" d="M14,8.2
		c-0.2,0.2-0.4,0.5-0.7,0.7c-0.1,0.1-0.2,0.3-0.1,0.5c0.2,0.3,0.3,0.6,0.4,0.9c0,0.1,0,0.2-0.1,0.2c0,0-0.1,0.1-0.3,0.1l0,0
		c-1.4-0.5-2.4-0.9-3.3-1.5c0,0,0,0,0,0L9.6,8.9c0.1-0.3,0.2-0.6,0.2-0.9c0,0,0,0,0,0L10.1,8h0c1-0.2,2.1-0.2,3.6-0.1c0,0,0,0,0,0
		C13.9,7.8,14,8,14,8C14,8,14.1,8.1,14,8.2z"/>
	
		<path style="clip-path:url(#SVGID_00000021826683102837127720000003139523363788138427_);fill:none;stroke:#DD87B8;stroke-width:0.241;stroke-miterlimit:10;" d="
		M14,8.2c-0.2,0.2-0.4,0.5-0.7,0.7c-0.1,0.1-0.2,0.3-0.1,0.5c0.2,0.3,0.3,0.6,0.4,0.9c0,0.1,0,0.2-0.1,0.2c0,0-0.1,0.1-0.3,0.1l0,0
		c-1.4-0.5-2.4-0.9-3.3-1.5c0,0,0,0,0,0L9.6,8.9c0.1-0.3,0.2-0.6,0.2-0.9c0,0,0,0,0,0L10.1,8h0c1-0.2,2.1-0.2,3.6-0.1c0,0,0,0,0,0
		C13.9,7.8,14,8,14,8C14,8,14.1,8.1,14,8.2z"/>
	<path style="clip-path:url(#SVGID_00000021826683102837127720000003139523363788138427_);fill:#DD87B8;" d="M12.2,12.5
		c0,0.1-0.1,0.1-0.2,0.2c-0.3,0-0.6,0-1,0c-0.2,0-0.4,0.1-0.4,0.3c-0.1,0.3-0.2,0.6-0.4,0.9C10.2,14,10.1,14,10,14
		c0,0-0.2,0-0.2-0.2l0,0c-0.7-1.3-1.1-2.4-1.3-3.4l-0.1-0.3C8.7,10,9,9.8,9.2,9.6l0.3,0.2c0.9,0.6,1.7,1.3,2.6,2.5l0,0
		C12.2,12.4,12.2,12.5,12.2,12.5z"/>
	
		<path style="clip-path:url(#SVGID_00000021826683102837127720000003139523363788138427_);fill:none;stroke:#DD87B8;stroke-width:0.241;stroke-miterlimit:10;" d="
		M12.2,12.5c0,0.1-0.1,0.1-0.2,0.2c-0.3,0-0.6,0-1,0c-0.2,0-0.4,0.1-0.4,0.3c-0.1,0.3-0.2,0.6-0.4,0.9C10.2,14,10.1,14,10,14
		c0,0-0.2,0-0.2-0.2l0,0c-0.7-1.3-1.1-2.4-1.3-3.4l-0.1-0.3C8.7,10,9,9.8,9.2,9.6l0.3,0.2c0.9,0.6,1.7,1.3,2.6,2.5l0,0
		C12.2,12.4,12.2,12.5,12.2,12.5z"/>
	<path style="clip-path:url(#SVGID_00000021826683102837127720000003139523363788138427_);fill:#DD87B8;" d="M7.8,14.2
		c0,0.2-0.1,0.2-0.2,0.2c0,0-0.1,0-0.2,0c-0.2-0.2-0.5-0.4-0.7-0.7c-0.1-0.1-0.2-0.1-0.3-0.1c-0.1,0-0.1,0-0.2,0
		c-0.3,0.2-0.6,0.3-0.9,0.4c-0.1,0-0.2,0-0.2-0.1c0,0-0.1-0.1-0.1-0.3l0,0c0.5-1.4,0.9-2.4,1.5-3.3l0.2-0.3c0.3,0.1,0.6,0.2,0.9,0.2
		c0,0,0,0,0,0l0.1,0.3C7.9,11.6,7.9,12.7,7.8,14.2L7.8,14.2z"/>
	
		<path style="clip-path:url(#SVGID_00000021826683102837127720000003139523363788138427_);fill:none;stroke:#DD87B8;stroke-width:0.241;stroke-miterlimit:10;" d="
		M7.8,14.2c0,0.2-0.1,0.2-0.2,0.2c0,0-0.1,0-0.2,0c-0.2-0.2-0.5-0.4-0.7-0.7c-0.1-0.1-0.2-0.1-0.3-0.1c-0.1,0-0.1,0-0.2,0
		c-0.3,0.2-0.6,0.3-0.9,0.4c-0.1,0-0.2,0-0.2-0.1c0,0-0.1-0.1-0.1-0.3l0,0c0.5-1.4,0.9-2.4,1.5-3.3l0.2-0.3c0.3,0.1,0.6,0.2,0.9,0.2
		c0,0,0,0,0,0l0.1,0.3C7.9,11.6,7.9,12.7,7.8,14.2L7.8,14.2z"/>
	<path style="clip-path:url(#SVGID_00000021826683102837127720000003139523363788138427_);fill:#DD87B8;" d="M3.5,12.5L3.5,12.5
		c-0.1,0.1-0.3,0.1-0.3,0.1c-0.1,0-0.1-0.1-0.2-0.2c0-0.3,0-0.6,0-1c0-0.2-0.1-0.4-0.3-0.4c-0.3-0.1-0.6-0.2-0.9-0.4
		c-0.1-0.1-0.1-0.2-0.1-0.2c0,0,0-0.2,0.2-0.2l0,0c1.3-0.7,2.4-1.1,3.4-1.3l0.3-0.1c0.1,0.3,0.3,0.5,0.5,0.8L5.9,9.9
		C5.3,10.7,4.6,11.6,3.5,12.5z"/>
	
		<path style="clip-path:url(#SVGID_00000021826683102837127720000003139523363788138427_);fill:none;stroke:#DD87B8;stroke-width:0.241;stroke-miterlimit:10;" d="
		M3.5,12.5L3.5,12.5c-0.1,0.1-0.3,0.1-0.3,0.1c-0.1,0-0.1-0.1-0.2-0.2c0-0.3,0-0.6,0-1c0-0.2-0.1-0.4-0.3-0.4
		c-0.3-0.1-0.6-0.2-0.9-0.4c-0.1-0.1-0.1-0.2-0.1-0.2c0,0,0-0.2,0.2-0.2l0,0c1.3-0.7,2.4-1.1,3.4-1.3l0.3-0.1
		c0.1,0.3,0.3,0.5,0.5,0.8L5.9,9.9C5.3,10.7,4.6,11.6,3.5,12.5z"/>
	<path style="clip-path:url(#SVGID_00000021826683102837127720000003139523363788138427_);fill:#DD87B8;" d="M1.5,8.3
		C1.5,8.3,1.4,8.3,1.5,8.3c-0.2,0-0.2-0.1-0.3-0.2c0,0,0-0.1,0-0.2c0.2-0.2,0.4-0.5,0.7-0.7C2,7.1,2.1,6.8,2,6.7
		C1.8,6.4,1.7,6.1,1.6,5.8c0-0.1,0-0.2,0.1-0.2c0,0,0.1-0.1,0.2-0.1c0,0,0.1,0,0.1,0l0,0C3.4,6,4.4,6.4,5.3,7l0.3,0.2
		C5.4,7.4,5.4,7.7,5.4,8.1c0,0,0,0,0,0L5.1,8.1h0C4,8.4,2.9,8.4,1.5,8.3z"/>
	
		<path style="clip-path:url(#SVGID_00000021826683102837127720000003139523363788138427_);fill:none;stroke:#DD87B8;stroke-width:0.241;stroke-miterlimit:10;" d="
		M1.5,8.3C1.5,8.3,1.4,8.3,1.5,8.3c-0.2,0-0.2-0.1-0.3-0.2c0,0,0-0.1,0-0.2c0.2-0.2,0.4-0.5,0.7-0.7C2,7.1,2.1,6.8,2,6.7
		C1.8,6.4,1.7,6.1,1.6,5.8c0-0.1,0-0.2,0.1-0.2c0,0,0.1-0.1,0.2-0.1c0,0,0.1,0,0.1,0l0,0C3.4,6,4.4,6.4,5.3,7l0.3,0.2
		C5.4,7.4,5.4,7.7,5.4,8.1c0,0,0,0,0,0L5.1,8.1h0C4,8.4,2.9,8.4,1.5,8.3z"/>
	<path style="clip-path:url(#SVGID_00000021826683102837127720000003139523363788138427_);fill:#DD87B8;" d="M3.1,3.6
		c0-0.1,0.1-0.1,0.2-0.2c0.3,0,0.6,0,1,0c0.2,0,0.4-0.1,0.4-0.3C4.7,2.8,4.9,2.5,5,2.2c0.1-0.1,0.2-0.1,0.2-0.1c0,0,0.2,0,0.2,0.2
		l0,0c0.7,1.3,1.1,2.4,1.3,3.4L6.8,6C6.5,6.1,6.3,6.3,6,6.5L5.8,6.3C4.9,5.8,4.1,5,3.1,3.9l0,0C3,3.7,3,3.6,3.1,3.6z"/>
	
		<path style="clip-path:url(#SVGID_00000021826683102837127720000003139523363788138427_);fill:none;stroke:#DD87B8;stroke-width:0.241;stroke-miterlimit:10;" d="
		M3.1,3.6c0-0.1,0.1-0.1,0.2-0.2c0.3,0,0.6,0,1,0c0.2,0,0.4-0.1,0.4-0.3C4.7,2.8,4.9,2.5,5,2.2c0.1-0.1,0.2-0.1,0.2-0.1
		c0,0,0.2,0,0.2,0.2l0,0c0.7,1.3,1.1,2.4,1.3,3.4L6.8,6C6.5,6.1,6.3,6.3,6,6.5L5.8,6.3C4.9,5.8,4.1,5,3.1,3.9l0,0
		C3,3.7,3,3.6,3.1,3.6z"/>
	<path style="clip-path:url(#SVGID_00000021826683102837127720000003139523363788138427_);fill:#DD87B8;" d="M7.4,1.9
		c0-0.2,0.1-0.2,0.2-0.2c0,0,0.1,0,0.2,0c0.2,0.2,0.5,0.4,0.7,0.7C8.6,2.5,8.8,2.5,9,2.5c0.3-0.2,0.6-0.3,0.9-0.4
		c0.1,0,0.2,0,0.2,0.1c0,0,0.1,0.1,0.1,0.3l0,0C9.7,3.9,9.3,4.9,8.7,5.8L8.5,6C8.2,5.9,7.9,5.9,7.6,5.9c0,0,0,0,0,0L7.5,5.5
		C7.3,4.5,7.3,3.4,7.4,1.9L7.4,1.9z"/>
	
		<path style="clip-path:url(#SVGID_00000021826683102837127720000003139523363788138427_);fill:none;stroke:#DD87B8;stroke-width:0.241;stroke-miterlimit:10;" d="
		M7.4,1.9c0-0.2,0.1-0.2,0.2-0.2c0,0,0.1,0,0.2,0c0.2,0.2,0.5,0.4,0.7,0.7C8.6,2.5,8.8,2.5,9,2.5c0.3-0.2,0.6-0.3,0.9-0.4
		c0.1,0,0.2,0,0.2,0.1c0,0,0.1,0.1,0.1,0.3l0,0C9.7,3.9,9.3,4.9,8.7,5.8L8.5,6C8.2,5.9,7.9,5.9,7.6,5.9c0,0,0,0,0,0L7.5,5.5
		C7.3,4.5,7.3,3.4,7.4,1.9L7.4,1.9z"/>
	<path style="clip-path:url(#SVGID_00000021826683102837127720000003139523363788138427_);fill:#FFFFFF;" d="M12.3,8.1
		c0,2.6-2.1,4.7-4.7,4.7s-4.7-2.1-4.7-4.7c0-2.6,2.1-4.7,4.7-4.7S12.3,5.5,12.3,8.1"/>
	
		<ellipse transform="matrix(0.3827 -0.9239 0.9239 0.3827 -2.7437 12.0021)" style="clip-path:url(#SVGID_00000021826683102837127720000003139523363788138427_);fill:none;stroke:#BC4D9C;stroke-width:0.599;stroke-miterlimit:10;" cx="7.6" cy="8.1" rx="4.7" ry="4.7"/>
</g>
</svg>
