<?xml version="1.0" encoding="UTF-8"?>
<svg id="Layer_1" data-name="Layer 1" xmlns="http://www.w3.org/2000/svg" xmlns:xlink="http://www.w3.org/1999/xlink" viewBox="0 0 52.75 38.04">
  <defs>
    <style>
      .cls-1 {
        clip-path: url(#clippath-4);
      }

      .cls-2 {
        fill: url(#linear-gradient-2);
      }

      .cls-3 {
        fill: #fff;
      }

      .cls-4 {
        fill: none;
      }

      .cls-5 {
        fill: url(#linear-gradient-4);
      }

      .cls-6 {
        fill: url(#linear-gradient-3);
      }

      .cls-7 {
        clip-path: url(#clippath-1);
      }

      .cls-8 {
        fill: url(#linear-gradient-5);
      }

      .cls-9 {
        clip-path: url(#clippath-3);
      }

      .cls-10 {
        clip-path: url(#clippath-2);
      }

      .cls-11 {
        fill: url(#linear-gradient);
      }

      .cls-12 {
        clip-path: url(#clippath);
      }
    </style>
    <clipPath id="clippath">
      <path class="cls-4" d="M13.54,29.31s.18-.04.4-.19l-.4.19ZM15.81,23.09c0,.07-.14,1.42-.73,3.92-.31,1.29-.8,1.86-1.14,2.11l4.31-2.09v-5.12s-2.43,1.18-2.43,1.18Z"/>
    </clipPath>
    <linearGradient id="linear-gradient" x1="-19.39" y1="548.13" x2="-18.39" y2="548.13" gradientTransform="translate(4074.39 -114.29) rotate(-90) scale(7.4 -7.4)" gradientUnits="userSpaceOnUse">
      <stop offset="0" stop-color="#674026"/>
      <stop offset="1" stop-color="#d5a65c"/>
    </linearGradient>
    <clipPath id="clippath-1">
      <path class="cls-4" d="M7.41,14.43c.09,0,1.87-.09,4.05-.84l4.25-2.06-.13-1.07-8.17,3.96Z"/>
    </clipPath>
    <linearGradient id="linear-gradient-2" x1="-19.39" y1="548.86" x2="-18.39" y2="548.86" gradientTransform="translate(2186.62 -62.42) rotate(-90) scale(3.96 -3.96)" gradientUnits="userSpaceOnUse">
      <stop offset="0" stop-color="#674026"/>
      <stop offset="1" stop-color="#d5a65c"/>
    </linearGradient>
    <clipPath id="clippath-2">
      <path class="cls-4" d="M15.49,9.5l.08.02c.1.22,2.03,4.45,4.28,6.48,2.25,2.02,4.05,3.13,4.15,3.19l.05,2.14-.78-.22c-.01.11-.28,2.29.13,5.41.41,3.12,1.2,5.84,1.24,5.98l12.1-5.87c-.04-.14-.84-2.86-1.24-5.98-.4-3.11-.14-5.3-.13-5.41l.78.22-.05-2.14c-.09-.06-1.9-1.17-4.14-3.19-2.25-2.02-4.18-6.25-4.28-6.48l-.08-.02-12.1,5.87Z"/>
    </clipPath>
    <linearGradient id="linear-gradient-3" x1="-19.39" y1="548.19" x2="-18.39" y2="548.19" gradientTransform="translate(15327.29 -509.3) rotate(-90) scale(27.91 -27.91)" gradientUnits="userSpaceOnUse">
      <stop offset="0" stop-color="#674026"/>
      <stop offset="1" stop-color="#d5a65c"/>
    </linearGradient>
    <clipPath id="clippath-3">
      <path class="cls-4" d="M11.46,13.6c-2.18.75-3.96.83-4.05.84l.05,2.14.77.22c.02.13.39,2.49.13,5.41-.26,2.93-.94,5.23-.98,5.34l6.15,1.76c.05,0,1.04-.2,1.54-2.31.59-2.5.73-3.84.73-3.92l.08.02c.01.08.21,1.52.93,4.39.61,2.42,1.62,3.19,1.67,3.23l6.15,1.76c-.04-.14-.84-2.86-1.24-5.98-.4-3.12-.14-5.3-.13-5.41l.78.22-.05-2.14c-.1-.06-1.9-1.17-4.15-3.19-2.25-2.02-4.18-6.25-4.28-6.48l-.08-.02c-.09.17-1.85,3.35-4.03,4.1"/>
    </clipPath>
    <linearGradient id="linear-gradient-4" x1="-19.39" y1="548.42" x2="-18.39" y2="548.42" gradientTransform="translate(389.69 10845.02) scale(19.74 -19.74)" gradientUnits="userSpaceOnUse">
      <stop offset="0" stop-color="#674026"/>
      <stop offset="1" stop-color="#d5a65c"/>
    </linearGradient>
    <clipPath id="clippath-4">
      <polygon class="cls-4" points="24 19.19 24.05 21.32 36.14 15.46 36.09 13.32 24 19.19"/>
    </clipPath>
    <linearGradient id="linear-gradient-5" x1="-19.39" y1="548.95" x2="-18.39" y2="548.95" gradientTransform="translate(3210.14 -92.13) rotate(-90) scale(5.79 -5.79)" gradientUnits="userSpaceOnUse">
      <stop offset="0" stop-color="#674026"/>
      <stop offset="1" stop-color="#d5a65c"/>
    </linearGradient>
  </defs>
  <g class="cls-12">
    <rect class="cls-11" x="13.54" y="21.91" width="4.71" height="7.4"/>
  </g>
  <g class="cls-7">
    <rect class="cls-2" x="7.41" y="10.47" width="8.3" height="3.96"/>
  </g>
  <g class="cls-10">
    <rect class="cls-6" x="13.15" y="2.01" width="25.94" height="32.11" transform="translate(-2.74 4.81) rotate(-10)"/>
  </g>
  <g class="cls-9">
    <rect class="cls-5" x="2.26" y="8.96" width="27.51" height="24.08" transform="translate(-9.19 28.87) rotate(-70)"/>
  </g>
  <g class="cls-1">
    <rect class="cls-8" x="23.39" y="12.33" width="13.35" height="9.99" transform="translate(-2.55 5.48) rotate(-10)"/>
  </g>
  <path class="cls-3" d="M24.64,32.5l.1-.36-6.15-1.76-.1.36.22-.3-.06-.04c-.15-.11-.89-.68-1.41-2.74l-.11-.44-3.62,1.71-6.01-1.73-.1.36.36.11c.04-.13.73-2.45.99-5.42.07-.77.09-1.51.09-2.17,0-1.89-.21-3.23-.22-3.33l-.04-.24-.74-.21-.04-1.62,6.98-3.39.05-.07c.58-.78.95-1.44.99-1.52l-.33-.18.16.34,12.1-5.87-.16-.34-.1.36.08.02.1-.36-.34.16c.05.12.57,1.24,1.35,2.6.79,1.36,1.84,2.94,3.02,4,2.27,2.04,4.09,3.16,4.2,3.23l.2-.32h-.38s.05,1.93.05,1.93l-.55.33-.16.1-.02.18h0c-.02.13-.12.73-.12,1.79,0,.77.05,1.78.22,3.05.41,3.15,1.21,5.88,1.26,6.04l.36-.11-.16-.34-12.1,5.87.16.34.1-.36-.1.36.16.34,12.39-6.01-.09-.31c-.04-.13-.83-2.84-1.23-5.92-.16-1.24-.21-2.22-.21-2.96,0-.54.03-.95.05-1.23.01-.14.03-.25.04-.32l.02-.16-.37-.04.19.32.74-.44.19-.11-.06-2.56-.17-.11c-.09-.05-1.87-1.15-4.09-3.15-1.07-.96-2.11-2.5-2.87-3.82-.77-1.32-1.27-2.43-1.32-2.53l-.07-.16-.25-.07-.14-.04-12.33,5.98-.06.1c-.04.07-.38.7-.94,1.44l.3.22-.16-.34-7.33,3.56.06,2.66,1.04.3.1-.36-.37.06c.01.08.22,1.38.22,3.22,0,.65-.03,1.36-.09,2.1-.26,2.89-.93,5.16-.96,5.27l-.11.36,6.65,1.91,3.46-1.63-.16-.34-.36.09c.31,1.25.72,2.04,1.08,2.52.18.24.34.41.47.52l.16.13.05.03h.01s0,.01,0,.01l.15-.22-.15.22h0s.15-.22.15-.22l-.15.22.05.04,6.35,1.82.13-.06-.16-.34Z"/>
  <g>
    <path class="cls-3" d="M52.13,14.08l-.1.08c-.2.16-.41.32-.6.48h-.18c-.42-.45-.91-.79-1.46-1.05-.74-.35-1.53-.51-2.35-.48l-.08.09c.01.16.02.33.03.49.01.25.03.5.04.76.54-.03,1.05.05,1.54.24.49.19.93.46,1.32.85-.26.2-.5.39-.76.59,1.03.42,2.04.82,3.06,1.24-.15-1.1-.31-2.18-.46-3.29"/>
    <path class="cls-3" d="M49.78,16.1l2.66,1.08-.4-2.86-.12.1c-.13.1-.27.21-.4.32l-.17.07-.18-.09c-.4-.41-.88-.75-1.43-1.01-.7-.33-1.45-.49-2.25-.47,0,.11.01.21.02.32l.04.77c.49-.01,1,.07,1.47.26.53.2.97.49,1.36.88l.1.1-.69.55ZM52.75,17.57l-3.47-1.4.81-.64c-.34-.32-.72-.55-1.17-.72-.48-.18-.98-.27-1.49-.23h-.12s-.05-1.01-.05-1.01c0-.12-.01-.23-.02-.35l.04-.16.16-.06c.84-.02,1.66.14,2.41.5.57.27,1.08.63,1.5,1.06h.01c.13-.11.27-.22.41-.33l.19-.15.09-.07.17-.14.04.21.49,3.5Z"/>
    <path class="cls-3" d="M41.49,16.44l.12.05c.24.1.47.2.71.29.09.03.11.07.08.16-.17.58-.22,1.18-.16,1.79.07.82.33,1.58.76,2.28l.11.03c.13-.09.27-.18.41-.27.21-.14.42-.28.64-.42-.3-.45-.48-.94-.56-1.46-.08-.52-.07-1.04.08-1.57.3.12.59.24.89.36-.15-1.1-.31-2.18-.46-3.28-.88.68-1.73,1.36-2.61,2.05"/>
    <path class="cls-3" d="M41.73,16.41l.1.04c.18.07.35.14.53.21.15.06.21.16.16.32-.16.55-.21,1.14-.16,1.74.06.77.31,1.51.71,2.19l.27-.17.64-.42c-.26-.43-.44-.91-.51-1.41-.09-.56-.06-1.09.08-1.62l.04-.14.82.33-.4-2.85-2.26,1.78ZM43.05,21.19h0c-.1,0-.15-.08-.17-.11-.44-.73-.71-1.51-.78-2.34-.05-.64,0-1.25.17-1.83h0s-.01-.01-.01-.01c-.18-.07-.36-.14-.53-.21l-.5-.2,2.95-2.31.52,3.71-.95-.38c-.1.45-.11.9-.04,1.38.08.51.26.98.54,1.42l.07.1-.85.56c-.1.06-.2.13-.29.19l-.13.05Z"/>
    <path class="cls-3" d="M48.85,24.51l-.02-.12c-.04-.25-.07-.51-.11-.76-.02-.09,0-.13.1-.15.59-.15,1.13-.4,1.63-.75.67-.47,1.2-1.07,1.59-1.8l-.03-.11c-.15-.07-.29-.15-.44-.22-.22-.11-.45-.23-.68-.35-.24.48-.57.88-.98,1.22-.41.33-.87.58-1.39.72-.05-.32-.09-.63-.13-.95-.87.68-1.73,1.35-2.6,2.04,1.03.42,2.04.82,3.07,1.24"/>
    <path class="cls-3" d="M46.02,23.23l2.67,1.08-.02-.17c-.02-.17-.04-.33-.07-.5-.03-.16.04-.26.19-.3.55-.14,1.08-.39,1.58-.73.64-.44,1.15-1.02,1.53-1.72-.1-.05-.2-.1-.29-.15l-.67-.34c-.24.45-.57.83-.96,1.15-.44.36-.91.6-1.44.74l-.14.04-.12-.88-2.26,1.77ZM49,24.71l-3.48-1.41,2.94-2.31.14,1.02c.44-.14.84-.35,1.21-.66.4-.33.71-.71.95-1.18l.06-.11.9.46c.11.06.22.11.33.16l.12.12-.03.17c-.4.75-.95,1.37-1.63,1.84-.52.37-1.08.62-1.67.77h0c.03.18.05.35.07.52l.09.6Z"/>
  </g>
</svg>