<?xml version="1.0" encoding="UTF-8"?>
<svg id="Layer_1" data-name="Layer 1" xmlns="http://www.w3.org/2000/svg" xmlns:xlink="http://www.w3.org/1999/xlink" viewBox="0 0 42.73 44.22">
  <defs>
    <style>
      .cls-1 {
        fill: url(#linear-gradient-2);
      }

      .cls-2, .cls-3 {
        fill: none;
      }

      .cls-3 {
        stroke: #fff;
        stroke-miterlimit: 10;
        stroke-width: .75px;
      }

      .cls-4 {
        clip-path: url(#clippath-1);
      }

      .cls-5 {
        fill: #2c973e;
      }

      .cls-6 {
        fill: url(#linear-gradient);
      }

      .cls-7 {
        clip-path: url(#clippath);
      }
    </style>
    <clipPath id="clippath">
      <path class="cls-2" d="M24.95,8.1c-.36.28-2.63.54-3.79.92l-5.73,3.48s-1.76,1.72-1.13,4.01l.36,1.7s-.1.02-.25.08c-.5.17-1.58.6-1.67,1.24-.12.85,1.08,3.13,1.08,3.13,0,0-1.32,1.85-1.32,6.66l9.63,7.22,6.98-6.16s.56-4.75-.72-6.84l1.36-1.2s.48-1.28-2.01-3.93l.05-.73.76-.8s-.66-.42-.27-.77c.72-.64.35-1.41.35-1.41,0,0-.02.09-.64-1.55-.62-1.64-.26-.94-.88-2.25-.46-.98-.38-2.53-.83-2.93-.24-.21-.43-.29-.6-.29-.29,0-.51.24-.73.42"/>
    </clipPath>
    <linearGradient id="linear-gradient" x1="-175.5" y1="273.26" x2="-174.5" y2="273.26" gradientTransform="translate(-3816.59 2485.87) rotate(90) scale(14.04 -14.04)" gradientUnits="userSpaceOnUse">
      <stop offset="0" stop-color="#d1d3d4"/>
      <stop offset=".42" stop-color="#d1d3d4"/>
      <stop offset="1" stop-color="#939598"/>
    </linearGradient>
    <clipPath id="clippath-1">
      <path class="cls-2" d="M19.03,11.57c-.33.26-2.45.5-3.52.86,0,0-1.41,1.42-1.33,2.73.08,1.31.42,3.02.42,3.02l-.19.11c-.5.17-1.58.6-1.67,1.24-.12.85,1.08,3.13,1.08,3.13,0,0-1.32,1.85-1.32,6.66l9.63,7.22.19-.69s1.17-6.92-.11-9.01l.95-1.58s1.11-1.47-1.38-4.12l-.1-.66.71-.75s-.62-.39-.25-.71c.67-.59.33-1.31.33-1.31,0,0-.02.09-.59-1.44-.58-1.52-.24-.88-.81-2.09-.43-.91-.35-2.35-.77-2.73-.22-.2-.4-.27-.56-.27-.27,0-.47.22-.68.39"/>
    </clipPath>
    <linearGradient id="linear-gradient-2" x1="-175.5" y1="272.93" x2="-174.5" y2="272.93" gradientTransform="translate(-2892.49 1892.87) rotate(90) scale(10.67 -10.67)" gradientUnits="userSpaceOnUse">
      <stop offset="0" stop-color="#d1d3d4"/>
      <stop offset=".31" stop-color="#d1d3d4"/>
      <stop offset=".9" stop-color="#939598"/>
      <stop offset=".92" stop-color="#939598"/>
      <stop offset="1" stop-color="#939598"/>
    </linearGradient>
  </defs>
  <g class="cls-7">
    <rect class="cls-6" x="6.47" y="5.18" width="29.79" height="33.86" transform="translate(-8.19 13.64) rotate(-30)"/>
  </g>
  <g class="cls-4">
    <rect class="cls-1" x="4.46" y="12.43" width="27.84" height="22.86" transform="translate(-11.47 27.85) rotate(-60)"/>
  </g>
  <g>
    <path class="cls-3" d="M27.74,18.41c2.49,2.65,2.01,3.93,2.01,3.93l-1.36,1.2c1.28,2.09.72,6.84.72,6.84l-6.98,6.16-9.63-7.22c0-4.81,1.32-6.66,1.32-6.66,0,0-1.2-2.29-1.08-3.13.09-.64,1.17-1.08,1.67-1.24.15-.05.25-.08.25-.08l-.36-1.7c-.62-2.29,1.13-4.01,1.13-4.01l5.73-3.48c1.16-.38,3.43-.64,3.79-.92.35-.28.68-.71,1.33-.12.45.4.37,1.96.83,2.93.62,1.31.25.61.88,2.25.62,1.64.64,1.55.64,1.55,0,0,.37.77-.35,1.41-.39.35.27.77.27.77l-.76.8-.05.73Z"/>
    <path class="cls-5" d="M33.19,31.91c.37-.37.54-.81.22-1.29-.26-.39-.81-.66-1.26-.47-.21.09-.39.27-.56.44-.91.9-1.31,1.3-2.21,2.21-.09-.05,0,.02-.09-.02.11-.23.18-.5.35-.67,1.17-1.2,1.88-1.88,3.06-3.08.51-.52.56-1.09.14-1.54-.45-.49-1.19-.54-1.76.02-.98.95-1.43,1.42-2.4,2.38-.11.11-.21.26-.35.33-.13.07-.16.12-.32.15.05-.13.05-.3.14-.39,1.11-1.12,1.73-1.74,2.85-2.86.74-.74.75-1.47.22-1.97-.5-.48-1.04-.36-1.79.39-1.19,1.19-1.88,1.89-3.08,3.06-.16.15-.32.31-.54.41-.04-.07-.09-.13-.13-.2.13-.15.26-.32.41-.46,1-1.01,1.52-1.51,2.52-2.52.55-.55.61-1.13.18-1.57-.44-.46-1.01-.45-1.58.11-1.37,1.34-1.72,1.73-3.08,3.09-.08.08-1.15,1.14-1.35,1.35.12-.6.23-1.01.3-1.44.16-.95-.22-1.8-.96-2.22-.71-.4-1.17-.17-1.18.64l-.47,3.12c-.33,1.02-.08,2.33-.14,3.39-.06,1.1-.37,1.96-1.25,2.61-.39.28-.32.55,0,.87,1.01.98,1.99,1.98,2.98,2.97s1.04,1.04,2.06,0c.3-.31.58-.45,1.03-.36.88.16,1.67-.13,2.3-.73l5.73-5.71Z"/>
    <path class="cls-3" d="M33.19,31.91c.37-.37.54-.81.22-1.29-.26-.39-.81-.66-1.26-.47-.21.09-.39.27-.56.44-.91.9-1.31,1.3-2.21,2.21-.09-.05,0,.02-.09-.02.11-.23.18-.5.35-.67,1.17-1.2,1.88-1.88,3.06-3.08.51-.52.56-1.09.14-1.54-.45-.49-1.19-.54-1.76.02-.98.95-1.43,1.42-2.4,2.38-.11.11-.21.26-.35.33-.13.07-.16.12-.32.15.05-.13.05-.3.14-.39,1.11-1.12,1.73-1.74,2.85-2.86.74-.74.75-1.47.22-1.97-.5-.48-1.04-.36-1.79.39-1.19,1.19-1.88,1.89-3.08,3.06-.16.15-.32.31-.54.41-.04-.07-.09-.13-.13-.2.13-.15.26-.32.41-.46,1-1.01,1.52-1.51,2.52-2.52.55-.55.61-1.13.18-1.57-.44-.46-1.01-.45-1.58.11-1.37,1.34-1.72,1.73-3.08,3.09-.08.08-1.15,1.14-1.35,1.35.12-.6.23-1.01.3-1.44.16-.95-.22-1.8-.96-2.22-.71-.4-1.17-.17-1.18.64l-.47,3.12c-.33,1.02-.08,2.33-.14,3.39-.06,1.1-.37,1.96-1.25,2.61-.39.28-.32.55,0,.87,1.01.98,1.99,1.98,2.98,2.97s1.04,1.04,2.06,0c.3-.31.58-.45,1.03-.36.88.16,1.67-.13,2.3-.73l5.73-5.71Z"/>
  </g>
</svg>