<?xml version="1.0" encoding="UTF-8"?>
<svg id="Layer_1" data-name="Layer 1" xmlns="http://www.w3.org/2000/svg" xmlns:xlink="http://www.w3.org/1999/xlink" viewBox="0 0 29.1 28.95">
  <defs>
    <style>
      .cls-1 {
        fill: url(#linear-gradient-2);
      }

      .cls-2, .cls-3 {
        fill: none;
      }

      .cls-3 {
        stroke: #fff;
        stroke-miterlimit: 10;
        stroke-width: .75px;
      }

      .cls-4 {
        clip-path: url(#clippath-1);
      }

      .cls-5 {
        fill: url(#linear-gradient);
      }

      .cls-6 {
        clip-path: url(#clippath);
      }
    </style>
    <clipPath id="clippath">
      <path class="cls-2" d="M8.78,13.33c.02.19,0,.38,0,.61h-.35c-2.54,0-5.09,0-7.64,0-.15,0-.29.04-.43.06v.31c.1.13.19.26.29.4.8,1.16,1.83,2.02,2.98,2.71,1.88,1.12,3.84,1.9,6.01,1.89.76,0,1.34.65,1.35,1.5,0,.79-.01,1.59,0,2.38,0,.36-.12.6-.38.82-.97.78-1.93,1.59-2.9,2.38-.19.15-.28.33-.27.59.01.4.01.81,0,1.22-.01.27.08.38.34.38,1.08,0,2.17,0,3.26,0,.1,0,.2-.07.3-.12.4-.24.77-.55,1.19-.74,1.38-.62,2.83-.73,4.29-.46.99.19,1.93.52,2.72,1.25.06.06.17.08.25.08,1.1,0,2.2,0,3.29,0,.21,0,.31-.09.3-.32,0-.41-.01-.81,0-1.22.01-.29-.09-.49-.3-.67-.98-.8-1.94-1.61-2.93-2.41-.23-.19-.33-.4-.32-.72.01-.54-.02-1.08.01-1.61,0-.29.06-.59.17-.85.4-.94,1.02-1.69,1.76-2.31,1.97-1.7,4.18-2.91,6.52-3.85.14-.05.26-.16.4-.25v-1.28c-.11-.04-.22-.12-.33-.12-6.42,0-12.85,0-19.27,0-.24,0-.36.09-.34.37"/>
    </clipPath>
    <linearGradient id="linear-gradient" x1="-252.97" y1="165.15" x2="-251.97" y2="165.15" gradientTransform="translate(7170.8 4701.85) scale(28.34 -28.34)" gradientUnits="userSpaceOnUse">
      <stop offset="0" stop-color="#929497"/>
      <stop offset="0" stop-color="#929497"/>
      <stop offset="1" stop-color="#404041"/>
    </linearGradient>
    <clipPath id="clippath-1">
      <path class="cls-2" d="M20.87.38c-.83.19-1.65.36-2.48.54-.03,0-.07.02-.11.03.28,1.26.55,2.51.82,3.76L1.71,8.32c-.33.52-.67,1.03-1,1.55.19.21.4.41.58.64.38.47.76.95,1.13,1.44l17.42-3.78c.27,1.28.54,2.54.81,3.78,1.64-.35,3.25-.7,4.89-1.05-.27-1.27-.54-2.52-.81-3.78.35-.1.58-.32.64-.68.02-.14,0-.29-.02-.42-.11-.55-.23-1.09-.35-1.64-.11-.52-.47-.78-1-.72-.03-.12-.06-.24-.08-.35-.02-.1-.05-.2-.06-.3-.02-.18-.13-.29-.29-.37-1.02-.53-1.86-1.28-2.56-2.2-.03-.04-.06-.06-.1-.06-.01,0-.03,0-.04,0"/>
    </clipPath>
    <linearGradient id="linear-gradient-2" x1="-252.97" y1="165.15" x2="-251.97" y2="165.15" gradientTransform="translate(6281.06 4106.18) scale(24.83 -24.83)" gradientUnits="userSpaceOnUse">
      <stop offset="0" stop-color="#929497"/>
      <stop offset="0" stop-color="#929497"/>
      <stop offset="1" stop-color="#404041"/>
    </linearGradient>
  </defs>
  <g class="cls-6">
    <rect class="cls-5" x=".37" y="12.96" width="28.35" height="15.61"/>
  </g>
  <path class="cls-3" d="M28.72,14.37c-.14.08-.26.2-.4.25-2.34.94-4.55,2.15-6.52,3.85-.73.63-1.36,1.38-1.76,2.31-.11.26-.16.56-.17.84-.03.53,0,1.07-.01,1.61,0,.32.1.54.32.72.98.79,1.95,1.61,2.93,2.41.21.17.31.37.3.67-.02.4,0,.81,0,1.22,0,.23-.09.32-.3.32-1.1,0-2.2,0-3.29,0-.08,0-.19-.02-.25-.08-.79-.72-1.73-1.06-2.72-1.25-1.46-.27-2.9-.16-4.29.46-.42.18-.8.49-1.2.74-.09.06-.19.12-.3.12-1.09,0-2.18,0-3.26,0-.26,0-.35-.11-.34-.38.01-.41.01-.81,0-1.22-.01-.26.09-.44.27-.59.97-.79,1.93-1.6,2.9-2.38.26-.21.39-.46.38-.82-.02-.79,0-1.59,0-2.38-.01-.84-.59-1.5-1.35-1.5-2.17,0-4.13-.77-6.01-1.89-1.15-.69-2.18-1.55-2.98-2.71-.1-.14-.19-.27-.28-.4v-.31c.14-.02.29-.06.43-.06,2.55,0,5.09,0,7.64,0h.35c0-.23.01-.42,0-.61-.02-.28.1-.37.34-.37,6.42,0,12.85,0,19.27,0,.11,0,.21.08.33.12v1.28Z"/>
  <g class="cls-4">
    <rect class="cls-1" x=".71" y=".37" width="24.83" height="11.58"/>
  </g>
  <path class="cls-3" d="M2.43,11.95c-.38-.48-.75-.97-1.13-1.44-.18-.23-.39-.43-.58-.64.33-.52.66-1.04,1-1.55l17.39-3.61c-.27-1.25-.55-2.5-.82-3.76.04,0,.07-.02.1-.03.82-.18,1.65-.36,2.48-.54.07-.02.1,0,.14.05.69.92,1.53,1.67,2.56,2.2.16.08.26.19.29.37,0,.1.04.2.06.3.02.11.05.23.08.35.54-.06.89.2,1,.72.12.55.24,1.09.35,1.64.03.14.05.29.02.42-.06.35-.29.57-.64.68.27,1.26.54,2.52.81,3.79-1.64.35-3.26.7-4.89,1.05-.27-1.25-.54-2.5-.81-3.78L2.43,11.95Z"/>
</svg>