<?xml version="1.0" encoding="UTF-8"?>
<svg xmlns="http://www.w3.org/2000/svg" xmlns:xlink="http://www.w3.org/1999/xlink" viewBox="0 0 52.22 44.03">
  <defs>
    <style>
      .cls-1 {
        fill: url(#linear-gradient-13);
      }

      .cls-2 {
        clip-path: url(#clippath-6);
      }

      .cls-3 {
        clip-path: url(#clippath-7);
      }

      .cls-4 {
        clip-path: url(#clippath-4);
      }

      .cls-5 {
        fill: url(#linear-gradient-2);
      }

      .cls-6 {
        fill: url(#linear-gradient-10);
      }

      .cls-7 {
        fill: url(#linear-gradient-12);
      }

      .cls-8 {
        stroke-linejoin: round;
      }

      .cls-8, .cls-9, .cls-10, .cls-11 {
        fill: none;
      }

      .cls-8, .cls-9, .cls-11 {
        stroke: #fff;
      }

      .cls-8, .cls-11 {
        stroke-width: .75px;
      }

      .cls-12 {
        clip-path: url(#clippath-9);
      }

      .cls-13 {
        clip-path: url(#clippath-10);
      }

      .cls-14 {
        fill: #fff;
      }

      .cls-9, .cls-11 {
        stroke-miterlimit: 10;
      }

      .cls-15 {
        clip-path: url(#clippath-11);
      }

      .cls-16 {
        fill: url(#linear-gradient-4);
      }

      .cls-17 {
        fill: url(#linear-gradient-3);
      }

      .cls-18 {
        clip-path: url(#clippath-1);
      }

      .cls-19 {
        fill: url(#linear-gradient-5);
      }

      .cls-20 {
        clip-path: url(#clippath-5);
      }

      .cls-21 {
        clip-path: url(#clippath-8);
      }

      .cls-22 {
        fill: url(#linear-gradient-8);
      }

      .cls-23 {
        clip-path: url(#clippath-3);
      }

      .cls-24 {
        clip-path: url(#clippath-12);
      }

      .cls-25 {
        fill: url(#linear-gradient-14);
      }

      .cls-26 {
        fill: url(#linear-gradient-7);
      }

      .cls-27 {
        fill: url(#linear-gradient-9);
      }

      .cls-28 {
        fill: url(#linear-gradient-11);
      }

      .cls-29 {
        fill: url(#linear-gradient-6);
      }

      .cls-30 {
        clip-path: url(#clippath-2);
      }

      .cls-31 {
        clip-path: url(#clippath-13);
      }

      .cls-32 {
        fill: url(#linear-gradient);
      }

      .cls-33 {
        clip-path: url(#clippath);
      }
    </style>
    <clipPath id="clippath">
      <path class="cls-10" d="M1.86,17.66c.36.46.74.87,1.13,1.21l-.17.49-.34.31-.16,1.81h.62l.95,6.44h4.16v-5.52h4.53v5.52h4.16l.95-6.44h.62l-.16-1.81-.34-.31-.27-.45c.87-.64,1.49-1.49,1.99-2.43.51-.95.75-1.89.74-2.8L1.86,17.66ZM10.23,1.17c-.46,2-1.56,3.54-3.22,4.74-1.38,1-2.73,2.02-4.04,3.11-.95.79-1.73,1.75-2.22,2.9-.46,1.08-.47,2.18-.2,3.19l18.89-4.08c-.19-.3-.41-.6-.66-.9-1.34-1.56-2.99-2.75-4.67-3.89-1.4-.96-2.62-2.08-3.27-3.7-.2-.5-.34-1.01-.53-1.56-.05.1-.08.14-.09.18"/>
    </clipPath>
    <linearGradient id="linear-gradient" x1="-184.51" y1="225.73" x2="-183.51" y2="225.73" gradientTransform="translate(3670.56 4504.64) scale(19.89 -19.89)" gradientUnits="userSpaceOnUse">
      <stop offset="0" stop-color="#e4a641"/>
      <stop offset="1" stop-color="#bb5218"/>
    </linearGradient>
    <clipPath id="clippath-1">
      <polygon class="cls-10" points="17.75 11.25 17.75 15.21 14.33 13.21 12.55 16.48 15.89 18.4 12.55 20.26 14.33 23.53 17.75 21.53 17.75 25.42 21.34 25.42 21.34 21.53 24.76 23.53 26.54 20.26 23.27 18.4 26.54 16.48 24.76 13.21 21.34 15.21 21.34 11.25 17.75 11.25"/>
    </clipPath>
    <linearGradient id="linear-gradient-2" x1="-184.51" y1="225.73" x2="-183.51" y2="225.73" gradientTransform="translate(-2554.8 -3139.74) rotate(-180) scale(13.99 -13.99)" gradientUnits="userSpaceOnUse">
      <stop offset="0" stop-color="#231f20"/>
      <stop offset=".1" stop-color="#231f20"/>
      <stop offset="1" stop-color="#6d6e70"/>
    </linearGradient>
    <clipPath id="clippath-2">
      <path class="cls-10" d="M28.52,14.63v.12c.02.69.22,1.36.58,1.98l11.54-8.79c-.16,0-.31,0-.47,0-6.44,0-11.66,3-11.66,6.7"/>
    </clipPath>
    <linearGradient id="linear-gradient-3" x1="-131.81" y1="33.83" x2="-130.81" y2="33.83" gradientTransform="translate(1627.07 422.63) scale(12.13 -12.13)" gradientUnits="userSpaceOnUse">
      <stop offset="0" stop-color="#c8a17b"/>
      <stop offset="1" stop-color="#775331"/>
    </linearGradient>
    <clipPath id="clippath-3">
      <path class="cls-10" d="M28.65,22.08c.41,1.56,1.76,2.94,3.69,3.95-1.94-1.01-3.28-2.4-3.69-3.95h0ZM31.93,19.36c1.43.82,3.23,1.43,5.24,1.74l11.08-11.31c-.94-.52-2.03-.95-3.23-1.26l-13.09,10.83Z"/>
    </clipPath>
    <linearGradient id="linear-gradient-4" x1="-119.5" y1="45.45" x2="-118.5" y2="45.45" gradientTransform="translate(2370.62 908.06) scale(19.6 -19.6)" gradientUnits="userSpaceOnUse">
      <stop offset="0" stop-color="#96999b"/>
      <stop offset="1" stop-color="#000"/>
    </linearGradient>
    <clipPath id="clippath-4">
      <path class="cls-10" d="M45.48,27.04c.29-.08.57-.18.84-.27-.27.1-.55.19-.84.27M46.32,26.77s.02,0,.03-.01c-.01,0-.02,0-.03.01M46.35,26.76s.03-.01.05-.02c-.02,0-.03.01-.05.02M46.41,26.73s.01,0,.02,0c0,0-.01,0-.02,0M46.46,26.72s0,0,0,0c0,0,0,0,0,0M46.5,26.7s0,0,0,0c0,0,0,0,0,0M51.82,21.46h0s0,0,0,0ZM51.83,21.4h0s0,0,0,0ZM51.83,21.34s0,0,0,0c0,0,0,0,0,0M51.84,21.31h0s0,0,0,0M51.84,21.28h0s0,0,0,0M51.84,21.25s0,0,0,0c0,0,0,0,0,0M51.84,21.19h0s0,0,0,0ZM51.84,21.16h0s0,0,0,0ZM51.84,21.13h0s0,0,0,0ZM51.84,21.1h0s0,0,0,0ZM49.24,18.85c1.56-1.1,2.52-2.49,2.6-4.01v-.21c0-.38-.05-.75-.16-1.11l-2.45,5.33Z"/>
    </clipPath>
    <linearGradient id="linear-gradient-5" x1="-161.03" y1="7.15" x2="-160.03" y2="7.15" gradientTransform="translate(1070.79 65.8) scale(6.37 -6.37)" gradientUnits="userSpaceOnUse">
      <stop offset="0" stop-color="#e4a641"/>
      <stop offset="1" stop-color="#bb5218"/>
    </linearGradient>
    <clipPath id="clippath-5">
      <path class="cls-10" d="M44.79,27.23s0,0,0,0c0,0,0,0,0,0M44.83,27.22s0,0,.02,0c0,0-.01,0-.02,0M44.86,27.21s.01,0,.02,0c0,0-.01,0-.02,0M44.89,27.2c.2-.05.39-.1.59-.16-.19.06-.39.11-.59.16M42.72,21.17c2.61-.33,4.89-1.17,6.52-2.32l2.45-5.33c-.26-.9-.84-1.74-1.66-2.49l-7.3,10.13Z"/>
    </clipPath>
    <linearGradient id="linear-gradient-6" x1="-128.23" y1="37.46" x2="-127.23" y2="37.46" gradientTransform="translate(1787.14 530.08) scale(13.64 -13.64)" gradientUnits="userSpaceOnUse">
      <stop offset="0" stop-color="#b8e2ea"/>
      <stop offset=".13" stop-color="#b8e2ea"/>
      <stop offset=".97" stop-color="#67aed1"/>
      <stop offset="1" stop-color="#64acd1"/>
    </linearGradient>
    <clipPath id="clippath-6">
      <path class="cls-10" d="M34.84,27.02s0,0,0,0c0,0,0,0,0,0M34.8,27.01s0,0-.01,0c0,0,0,0,.01,0M34.75,27s0,0-.01,0c0,0,0,0,.01,0M34.71,26.99s0,0,0,0c0,0,0,0,0,0M34.7,26.98s0,0,0,0c0,0,0,0,0,0M34.67,26.98s-.05-.02-.08-.02c.03,0,.05.02.08.02M34.59,26.95c-.81-.26-1.57-.57-2.25-.92.68.35,1.43.66,2.25.92M37.17,21.1c.96.15,1.97.23,3.01.23.87,0,1.72-.06,2.54-.16l7.3-10.13c-.51-.45-1.1-.87-1.78-1.24l-11.08,11.31Z"/>
    </clipPath>
    <linearGradient id="linear-gradient-7" x1="-121.66" y1="43.5" x2="-120.66" y2="43.5" gradientTransform="translate(2183.45 787.45) scale(17.68 -17.68)" gradientUnits="userSpaceOnUse">
      <stop offset="0" stop-color="#fd0"/>
      <stop offset="1" stop-color="#cf9810"/>
    </linearGradient>
    <clipPath id="clippath-7">
      <path class="cls-10" d="M28.65,22.08h0c-.08-.3-.12-.6-.13-.9,0,.31.05.61.13.9M28.52,21.17v-.02.02M28.52,21.13s0,.01,0,.02c0,0,0-.01,0-.02ZM29.1,16.73c.58,1.01,1.56,1.9,2.83,2.64l13.09-10.83c-1.34-.35-2.82-.56-4.37-.6l-11.54,8.79Z"/>
    </clipPath>
    <linearGradient id="linear-gradient-8" x1="-123.25" y1="41.92" x2="-122.25" y2="41.92" gradientTransform="translate(2062.24 706.69) scale(16.5 -16.5)" gradientUnits="userSpaceOnUse">
      <stop offset="0" stop-color="#c81f25"/>
      <stop offset=".23" stop-color="#c81f25"/>
      <stop offset="1" stop-color="#6c0404"/>
    </linearGradient>
    <clipPath id="clippath-8">
      <path class="cls-10" d="M28.52,17.17l.58-.45c-.36-.62-.56-1.29-.58-1.98v2.43Z"/>
    </clipPath>
    <linearGradient id="linear-gradient-9" x1="-131.81" y1="33.57" x2="-130.81" y2="33.57" gradientTransform="translate(1627.08 423.07) scale(12.13 -12.13)" gradientUnits="userSpaceOnUse">
      <stop offset="0" stop-color="#d8bb9c"/>
      <stop offset="1" stop-color="#977a5e"/>
    </linearGradient>
    <clipPath id="clippath-9">
      <path class="cls-10" d="M28.65,22.08c.41,1.56,1.75,2.94,3.69,3.95l4.83-4.93c-2.01-.31-3.81-.92-5.24-1.74l-3.28,2.71Z"/>
    </clipPath>
    <linearGradient id="linear-gradient-10" x1="-119.5" y1="45.17" x2="-118.5" y2="45.17" gradientTransform="translate(2370.62 908.06) scale(19.6 -19.6)" gradientUnits="userSpaceOnUse">
      <stop offset="0" stop-color="#b5b7b9"/>
      <stop offset="1" stop-color="#38413b"/>
    </linearGradient>
    <clipPath id="clippath-10">
      <path class="cls-10" d="M49.24,18.85l-3.76,8.19c.29-.08.57-.18.84-.27,0,0,0,0,0,0,0,0,.02,0,.03-.01.02,0,.03-.01.05-.02,0,0,.01,0,.02,0,0,0,.01,0,.02,0,.01,0,.02,0,.03-.01,0,0,0,0,0,0,.01,0,.03,0,.04-.01,0,0,0,0,0,0,2.99-1.11,5.03-2.99,5.3-5.14,0-.02,0-.04,0-.06,0-.01,0-.02,0-.03h0s0-.04,0-.06h0s0-.04,0-.06c0,0,0,0,0,0,0,0,0-.02,0-.02h0s0-.02,0-.03h0v-.03s0,0,0,0c0,0,0-.02,0-.03,0-.01,0-.02,0-.03h0s0-.02,0-.03h0s0-.02,0-.03h0v-.03h0v-6.26c-.08,1.52-1.05,2.91-2.6,4.01"/>
    </clipPath>
    <linearGradient id="linear-gradient-11" x1="-161.03" y1="7.05" x2="-160.03" y2="7.05" gradientTransform="translate(1070.79 65.8) scale(6.37 -6.37)" gradientUnits="userSpaceOnUse">
      <stop offset="0" stop-color="#ecbd78"/>
      <stop offset="1" stop-color="#ce7d4e"/>
    </linearGradient>
    <clipPath id="clippath-11">
      <path class="cls-10" d="M42.72,21.17l-4.41,6.12h6.24c.08-.02.16-.04.24-.06,0,0,0,0,0,0,0,0,.02,0,.03,0,0,0,0,0,.02,0,0,0,.01,0,.02,0,0,0,.01,0,.02,0,0,0,0,0,0,0,.2-.05.39-.1.59-.16l3.76-8.19c-1.63,1.15-3.91,1.98-6.52,2.32"/>
    </clipPath>
    <linearGradient id="linear-gradient-12" x1="-128.23" y1="37.17" x2="-127.23" y2="37.17" gradientTransform="translate(1787.14 530.08) scale(13.64 -13.64)" gradientUnits="userSpaceOnUse">
      <stop offset="0" stop-color="#cdeaef"/>
      <stop offset=".13" stop-color="#cdeaef"/>
      <stop offset=".91" stop-color="#94c4dd"/>
      <stop offset="1" stop-color="#8ec0dc"/>
    </linearGradient>
    <clipPath id="clippath-12">
      <path class="cls-10" d="M32.35,26.03c.68.35,1.43.66,2.25.92.03,0,.05.02.08.02,0,0,.01,0,.02,0,0,0,.01,0,.02,0,0,0,.02,0,.03,0,0,0,0,0,.01,0,.01,0,.03,0,.04.01,0,0,0,0,.01,0,.01,0,.02,0,.04.01,0,0,0,0,0,0,.32.1.64.18.98.26h2.5l4.41-6.12c-.82.1-1.67.16-2.54.16-1.04,0-2.05-.08-3.01-.23l-4.83,4.93Z"/>
    </clipPath>
    <linearGradient id="linear-gradient-13" x1="-121.66" y1="43.17" x2="-120.66" y2="43.17" gradientTransform="translate(2183.45 787.45) scale(17.68 -17.68)" gradientUnits="userSpaceOnUse">
      <stop offset="0" stop-color="#ffe56a"/>
      <stop offset="1" stop-color="#deb25a"/>
    </linearGradient>
    <clipPath id="clippath-13">
      <path class="cls-10" d="M28.52,17.17v3.96s0,.01,0,.02h0v.02h0c0,.31.05.61.13.9l3.28-2.71c-1.27-.73-2.25-1.63-2.83-2.64l-.58.45Z"/>
    </clipPath>
    <linearGradient id="linear-gradient-14" x1="-123.25" y1="41.65" x2="-122.25" y2="41.65" gradientTransform="translate(2062.24 706.69) scale(16.5 -16.5)" gradientUnits="userSpaceOnUse">
      <stop offset="0" stop-color="#d6684f"/>
      <stop offset=".23" stop-color="#d6684f"/>
      <stop offset="1" stop-color="#8f4837"/>
    </linearGradient>
  </defs>
  <g id="Layer_1" data-name="Layer 1">
    <path class="cls-9" d="M32.83,22.64c9.64,1.23,16.72,5.35,16.72,10.25,0,5.87-10.15,10.63-22.68,10.63s-22.68-4.76-22.68-10.63c0-1.4.58-2.74,1.63-3.96"/>
    <path class="cls-11" d="M51.79,20.65c0,2.61-2.59,4.86-6.37,5.97-1.59.46-3.39.73-5.29.73-.73,0-1.44-.04-2.14-.11-2.17-.23-4.13-.81-5.7-1.62-1.94-1.01-3.28-2.4-3.69-3.95-.09-.33-.13-.67-.13-1.01v-6.44c0-3.7,5.22-6.7,11.66-6.7.16,0,.31,0,.47,0,1.56.04,3.03.24,4.37.6,1.2.31,2.29.74,3.23,1.26.68.37,1.27.79,1.78,1.24.82.74,1.4,1.58,1.66,2.48.1.36.16.73.16,1.11v6.44Z"/>
    <g class="cls-33">
      <rect class="cls-32" x=".29" y=".99" width="19.99" height="26.93"/>
    </g>
    <path class="cls-11" d="M19.45,11.04c-.19-.3-.41-.6-.66-.9-1.34-1.56-2.99-2.75-4.67-3.89-1.4-.96-2.62-2.08-3.27-3.7-.19-.5-.34-1.01-.53-1.56-.05.1-.08.14-.09.18-.46,2-1.56,3.54-3.22,4.74-1.38,1-2.73,2.02-4.04,3.11-.95.79-1.73,1.75-2.22,2.9-.46,1.08-.47,2.18-.2,3.19l18.89-4.08ZM1.86,17.66c.35.46.74.87,1.13,1.21l-.17.49-.34.31-.16,1.81h.62l.95,6.44h4.16v-5.52h4.53v5.52h4.16l.95-6.44h.62l-.16-1.81-.34-.31-.27-.44c.87-.64,1.49-1.49,1.99-2.43.51-.95.75-1.89.74-2.8L1.86,17.66Z"/>
    <g class="cls-18">
      <rect class="cls-5" x="12.55" y="11.25" width="13.99" height="14.17"/>
    </g>
    <polygon class="cls-8" points="12.55 16.48 14.33 13.21 17.75 15.21 17.75 11.25 21.34 11.25 21.34 15.21 24.76 13.21 26.54 16.48 23.27 18.41 26.54 20.26 24.76 23.53 21.34 21.53 21.34 25.42 17.75 25.42 17.75 21.53 14.33 23.53 12.55 20.26 15.9 18.41 12.55 16.48"/>
  </g>
  <g id="Layer_2" data-name="Layer 2">
    <g class="cls-30">
      <rect class="cls-17" x="28.52" y="7.93" width="12.13" height="8.8"/>
    </g>
    <g class="cls-23">
      <rect class="cls-16" x="28.65" y="8.53" width="19.6" height="17.5"/>
    </g>
    <g class="cls-4">
      <rect class="cls-19" x="45.48" y="13.52" width="6.37" height="13.52"/>
    </g>
    <g class="cls-20">
      <rect class="cls-29" x="42.72" y="11.03" width="8.96" height="16.19"/>
    </g>
    <g class="cls-2">
      <rect class="cls-26" x="32.35" y="9.79" width="17.68" height="17.23"/>
    </g>
    <g class="cls-3">
      <rect class="cls-22" x="28.52" y="7.93" width="16.5" height="14.15"/>
    </g>
    <path class="cls-14" d="M51.85,14.62c0,.07,0,.14,0,.21v6.23-6.45ZM28.52,14.62v6.45s0-3.9,0-3.9v-2.42s0-.08,0-.12M51.84,21.07v.03-.03M28.52,21.09h0s0,0,0,0M51.84,21.1s0,.02,0,.02c0,0,0-.01,0-.02M28.52,21.11s0,0,0,0c0,0,0,0,0,0M51.84,21.13v.03-.03M28.52,21.13h0s0,0,0,0M28.52,21.15h0s0,0,0,0M51.84,21.16s0,.02,0,.02c0,0,0-.02,0-.02M28.52,21.17h0s0,0,0,0M51.84,21.19s0,.02,0,.03c0-.01,0-.02,0-.03M51.84,21.22s0,.02,0,.03c0,0,0-.02,0-.03M51.84,21.25s0,.02,0,.02c0,0,0-.02,0-.02M51.84,21.28s0,.02,0,.03c0,0,0-.02,0-.03M51.84,21.31s0,.02,0,.02c0,0,0-.02,0-.02M51.83,21.34s0,.04,0,.06c0-.02,0-.04,0-.06M51.83,21.4s0,.04,0,.06c0-.02,0-.04,0-.06M51.82,21.46s0,.02,0,.03c0-.01,0-.02,0-.03M51.82,21.49s0,.04,0,.06c0-.02,0-.04,0-.06M51.81,21.55c-.27,2.16-2.32,4.03-5.3,5.15,2.99-1.11,5.03-2.99,5.3-5.15M46.5,26.7s-.03,0-.04.01c.01,0,.03,0,.04-.01M46.46,26.72s-.02,0-.03.01c.01,0,.02,0,.03-.01M46.41,26.73s-.01,0-.02,0c0,0,.01,0,.02,0M46.35,26.76h0,0ZM46.32,26.77s0,0,0,0c0,0,0,0,0,0M34.59,26.95h0,0ZM34.68,26.98s.01,0,.02,0c0,0-.01,0-.02,0M34.71,26.99s.02,0,.03,0c0,0-.02,0-.03,0M34.75,27s.03,0,.04.01c-.01,0-.03,0-.04-.01M34.8,27.01s.02,0,.04.01c-.01,0-.02,0-.04-.01M34.84,27.03c.87.26,1.81.46,2.8.58-.98-.13-1.92-.32-2.8-.58M44.89,27.2s0,0,0,0c0,0,0,0,0,0M44.86,27.21s-.01,0-.02,0c0,0,.01,0,.02,0M44.83,27.22s-.02,0-.03,0c0,0,.02,0,.03,0M44.79,27.23c-1.22.3-2.55.49-3.95.53,1.4-.05,2.72-.23,3.95-.53M37.64,27.61s.03,0,.04,0c-.01,0-.03,0-.04,0M37.69,27.62s.03,0,.04,0c-.01,0-.03,0-.04,0M37.75,27.62s.01,0,.02,0c0,0-.01,0-.02,0M40.85,27.76s-.03,0-.04,0c.01,0,.03,0,.04,0M40.8,27.76s-.03,0-.04,0c.01,0,.03,0,.04,0M40.76,27.76s-.02,0-.04,0c.01,0,.03,0,.04,0M40.71,27.76s-.06,0-.09,0c.03,0,.06,0,.09,0M40.62,27.76s-.02,0-.04,0c.01,0,.02,0,.04,0M40.57,27.77s-.02,0-.03,0c.01,0,.02,0,.03,0M40.53,27.77s-.02,0-.03,0c.01,0,.02,0,.03,0M40.49,27.77h-.04.04M39.88,27.77h0,0M40.45,27.77s-.03,0-.04,0c.01,0,.03,0,.04,0M39.94,27.77h.03-.03M40.4,27.77h-.03.03M39.99,27.77s.03,0,.05,0c-.02,0-.03,0-.05,0M40.35,27.77s-.02,0-.03,0c.01,0,.02,0,.03,0M40.05,27.77h.06-.06M40.31,27.77h-.03.03M40.27,27.77h-.03.03M40.12,27.77h.06-.06M40.22,27.77h-.04.04"/>
    <g class="cls-21">
      <rect class="cls-27" x="28.52" y="14.75" width=".58" height="2.43"/>
    </g>
    <g class="cls-12">
      <rect class="cls-6" x="28.65" y="19.36" width="8.52" height="6.67"/>
    </g>
    <g class="cls-13">
      <rect class="cls-28" x="45.48" y="14.84" width="6.37" height="12.2"/>
    </g>
    <g class="cls-15">
      <rect class="cls-7" x="38.31" y="18.85" width="10.92" height="8.43"/>
    </g>
    <g class="cls-24">
      <rect class="cls-1" x="32.35" y="21.1" width="10.38" height="6.18"/>
    </g>
    <g class="cls-31">
      <rect class="cls-25" x="28.52" y="16.73" width="3.41" height="5.35"/>
    </g>
    <path class="cls-14" d="M51.84,21.07h-.38c0,1.17-.58,2.29-1.65,3.27-1.06.98-2.61,1.8-4.45,2.34-1.55.46-3.32.71-5.19.71-.72,0-1.42-.04-2.1-.11-2.13-.23-4.04-.79-5.57-1.58-1.88-.98-3.14-2.3-3.51-3.72-.08-.3-.12-.6-.12-.92v-6.44c0-.83.29-1.64.84-2.39,1.65-2.26,5.7-3.95,10.44-3.94.15,0,.3,0,.46,0,1.53.03,2.98.24,4.29.58,1.17.31,2.24.73,3.14,1.23.65.36,1.23.76,1.71,1.19.78.71,1.31,1.49,1.55,2.31.1.33.14.66.14,1v6.44h.75v-6.44c0-.41-.06-.82-.17-1.21-.28-.99-.91-1.88-1.77-2.66-.53-.48-1.15-.91-1.85-1.29-.97-.54-2.09-.97-3.31-1.3-1.37-.36-2.88-.57-4.46-.61-.16,0-.32,0-.47,0-3.28,0-6.25.76-8.43,2.01-1.09.63-1.98,1.38-2.61,2.23-.63.85-.99,1.82-.99,2.83v6.44c0,.38.05.75.14,1.11.45,1.71,1.89,3.15,3.88,4.19,1.62.84,3.62,1.43,5.83,1.67.71.08,1.43.11,2.18.11,1.94,0,3.77-.27,5.4-.74,1.93-.57,3.57-1.43,4.75-2.51,1.17-1.08,1.89-2.39,1.89-3.82h-.38Z"/>
  </g>
</svg>