<?xml version="1.0" encoding="UTF-8"?>
<svg id="Layer_1" data-name="Layer 1" xmlns="http://www.w3.org/2000/svg" xmlns:xlink="http://www.w3.org/1999/xlink" viewBox="0 0 46.36 44.03">
  <defs>
    <style>
      .cls-1 {
        fill: url(#linear-gradient-2);
      }

      .cls-2 {
        stroke-linejoin: round;
      }

      .cls-2, .cls-3, .cls-4, .cls-5 {
        fill: none;
      }

      .cls-2, .cls-3, .cls-5 {
        stroke: #fff;
      }

      .cls-2, .cls-5 {
        stroke-width: .75px;
      }

      .cls-3, .cls-5 {
        stroke-miterlimit: 10;
      }

      .cls-6 {
        fill: url(#linear-gradient-3);
      }

      .cls-7 {
        clip-path: url(#clippath-1);
      }

      .cls-8 {
        clip-path: url(#clippath-2);
      }

      .cls-9 {
        fill: url(#linear-gradient);
      }

      .cls-10 {
        clip-path: url(#clippath);
      }
    </style>
    <clipPath id="clippath">
      <path class="cls-4" d="M8.16,17.67c.36.46.75.87,1.14,1.21l-.17.49-.34.3-.16,1.81h.62l.95,6.44h4.16v-5.52h4.53v5.52h4.16l.95-6.44h.62l-.16-1.81-.34-.3-.27-.45c.87-.64,1.49-1.49,1.99-2.43.51-.96.75-1.89.74-2.8l-18.41,3.97ZM16.54,1.18c-.46,2-1.56,3.54-3.22,4.74-1.38,1-2.73,2.02-4.04,3.11-.95.79-1.73,1.75-2.22,2.9-.46,1.08-.47,2.18-.2,3.19l18.89-4.08c-.19-.3-.41-.6-.66-.9-1.34-1.56-2.99-2.75-4.67-3.89-1.4-.96-2.62-2.08-3.26-3.7-.2-.5-.34-1.01-.53-1.56-.05.1-.08.14-.09.18"/>
    </clipPath>
    <linearGradient id="linear-gradient" x1="-107.27" y1="225.74" x2="-106.27" y2="225.74" gradientTransform="translate(2140.53 4505.01) scale(19.89 -19.89)" gradientUnits="userSpaceOnUse">
      <stop offset="0" stop-color="#929497"/>
      <stop offset="0" stop-color="#929497"/>
      <stop offset="1" stop-color="#404041"/>
    </linearGradient>
    <clipPath id="clippath-1">
      <path class="cls-4" d="M20.16,17.67c.36.46.74.87,1.13,1.21l-.17.49-.34.3-.16,1.81h.62l.95,6.44h4.16v-5.52h4.53v5.52h4.16l.95-6.44h.62l-.16-1.81-.34-.3-.27-.45c.87-.64,1.49-1.49,1.99-2.43.51-.96.75-1.89.74-2.8l-18.4,3.97ZM28.54,1.18c-.46,2-1.56,3.54-3.22,4.74-1.38,1-2.73,2.02-4.04,3.11-.95.79-1.73,1.75-2.22,2.9-.46,1.08-.47,2.18-.2,3.19l18.89-4.08c-.19-.3-.41-.6-.66-.9-1.34-1.56-2.99-2.75-4.67-3.89-1.4-.96-2.62-2.08-3.26-3.7-.19-.5-.34-1.01-.53-1.56-.05.1-.08.14-.09.18"/>
    </clipPath>
    <linearGradient id="linear-gradient-2" x1="-107.27" y1="225.74" x2="-106.27" y2="225.74" gradientTransform="translate(2152.43 4504.79) scale(19.89 -19.89)" gradientUnits="userSpaceOnUse">
      <stop offset="0" stop-color="#929497"/>
      <stop offset="0" stop-color="#929497"/>
      <stop offset="1" stop-color="#404041"/>
    </linearGradient>
    <clipPath id="clippath-2">
      <polygon class="cls-4" points="36.05 11.25 36.05 15.22 32.63 13.22 30.85 16.49 34.2 18.41 30.85 20.27 32.63 23.54 36.05 21.54 36.05 25.42 39.64 25.42 39.64 21.54 43.06 23.54 44.84 20.27 41.57 18.41 44.84 16.49 43.06 13.22 39.64 15.22 39.64 11.25 36.05 11.25"/>
    </clipPath>
    <linearGradient id="linear-gradient-3" x1="-107.27" y1="225.74" x2="-106.27" y2="225.74" gradientTransform="translate(-1455.88 -3139.81) rotate(-180) scale(13.99 -13.99)" gradientUnits="userSpaceOnUse">
      <stop offset="0" stop-color="#231f20"/>
      <stop offset=".1" stop-color="#231f20"/>
      <stop offset="1" stop-color="#6d6e70"/>
    </linearGradient>
  </defs>
  <path class="cls-3" d="M29.13,22.65c9.64,1.23,16.72,5.35,16.72,10.26,0,5.87-10.15,10.63-22.68,10.63S.5,38.78.5,32.91c0-1.4.58-2.74,1.63-3.96"/>
  <g class="cls-10">
    <rect class="cls-9" x="6.59" y=".99" width="20" height="26.93"/>
  </g>
  <path class="cls-5" d="M25.75,11.05c-.19-.3-.41-.6-.66-.9-1.34-1.56-2.99-2.75-4.67-3.89-1.4-.96-2.62-2.08-3.27-3.7-.19-.5-.34-1.01-.53-1.57-.05.1-.08.14-.09.19-.46,2-1.56,3.54-3.22,4.74-1.38,1-2.73,2.02-4.04,3.11-.95.79-1.73,1.75-2.22,2.9-.47,1.08-.47,2.18-.2,3.19l18.89-4.08ZM8.16,17.67c.35.46.75.87,1.14,1.21l-.17.49-.34.31-.16,1.81h.62l.95,6.44h4.16v-5.52h4.53v5.52h4.16l.95-6.44h.62l-.16-1.81-.34-.31-.27-.44c.87-.64,1.49-1.49,1.99-2.43.51-.95.75-1.89.74-2.8l-18.41,3.97Z"/>
  <g class="cls-7">
    <rect class="cls-1" x="18.59" y=".99" width="20" height="26.93"/>
  </g>
  <path class="cls-5" d="M37.75,11.05c-.19-.3-.41-.6-.66-.9-1.34-1.56-2.99-2.75-4.67-3.89-1.4-.96-2.62-2.08-3.27-3.7-.19-.5-.34-1.01-.53-1.57-.05.1-.08.14-.09.19-.46,2-1.56,3.54-3.22,4.74-1.38,1-2.73,2.02-4.04,3.11-.95.79-1.73,1.75-2.22,2.9-.46,1.08-.47,2.18-.2,3.19l18.89-4.08ZM20.16,17.67c.35.46.74.87,1.13,1.21l-.17.49-.34.31-.16,1.81h.62l.95,6.44h4.16v-5.52h4.53v5.52h4.16l.95-6.44h.62l-.16-1.81-.34-.31-.27-.44c.87-.64,1.49-1.49,1.99-2.43.51-.95.75-1.89.74-2.8l-18.4,3.97Z"/>
  <g class="cls-8">
    <rect class="cls-6" x="30.85" y="11.25" width="13.99" height="14.17"/>
  </g>
  <polygon class="cls-2" points="30.85 16.49 32.63 13.22 36.05 15.22 36.05 11.25 39.64 11.25 39.64 15.22 43.06 13.22 44.84 16.49 41.57 18.41 44.84 20.27 43.06 23.54 39.64 21.54 39.64 25.43 36.05 25.43 36.05 21.54 32.63 23.54 30.85 20.27 34.2 18.41 30.85 16.49"/>
</svg>