<?xml version="1.0" encoding="UTF-8"?>
<svg xmlns="http://www.w3.org/2000/svg" xmlns:xlink="http://www.w3.org/1999/xlink" viewBox="0 0 59.54 45.65">
  <defs>
    <style>
      .cls-1 {
        fill: url(#linear-gradient-2);
      }

      .cls-2 {
        stroke-linejoin: round;
      }

      .cls-2, .cls-3, .cls-4, .cls-5 {
        fill: none;
      }

      .cls-2, .cls-3, .cls-5 {
        stroke: #fff;
      }

      .cls-2, .cls-5 {
        stroke-width: .75px;
      }

      .cls-6 {
        fill: #fff;
      }

      .cls-3, .cls-5 {
        stroke-miterlimit: 10;
      }

      .cls-7 {
        fill: url(#linear-gradient-4);
      }

      .cls-8 {
        fill: url(#linear-gradient-3);
      }

      .cls-9 {
        clip-path: url(#clippath-1);
      }

      .cls-10 {
        clip-path: url(#clippath-3);
      }

      .cls-11 {
        clip-path: url(#clippath-2);
      }

      .cls-12 {
        fill: url(#linear-gradient);
      }

      .cls-13 {
        clip-path: url(#clippath);
      }
    </style>
    <clipPath id="clippath">
      <path class="cls-4" d="M42.47.38h14.99c.94,0,1.7.76,1.7,1.7v25.9c0,.94-.76,1.7-1.7,1.7h-15c-.94,0-1.7-.76-1.7-1.7V2.08c0-.94.76-1.7,1.7-1.7Z"/>
    </clipPath>
    <linearGradient id="linear-gradient" x1="-714.12" y1="227.36" x2="-713.12" y2="227.36" gradientTransform="translate(-13080.86 -4168.5) rotate(-180) scale(18.4 -18.4)" gradientUnits="userSpaceOnUse">
      <stop offset="0" stop-color="#674026"/>
      <stop offset="1" stop-color="#d5a65c"/>
    </linearGradient>
    <clipPath id="clippath-1">
      <path class="cls-4" d="M1.86,19.17c.36.46.75.87,1.14,1.21l-.17.49-.34.3-.16,1.81h.62l.95,6.44h4.16v-5.52h4.53v5.52h4.16l.95-6.44h.62l-.16-1.81-.34-.3-.27-.45c.87-.64,1.49-1.49,1.99-2.43.51-.96.75-1.89.74-2.8L1.86,19.17ZM10.24,2.68c-.46,2-1.56,3.54-3.22,4.74-1.38,1-2.73,2.02-4.04,3.11-.95.79-1.73,1.75-2.22,2.9-.46,1.08-.47,2.18-.2,3.19l18.89-4.08c-.19-.3-.41-.6-.66-.9-1.34-1.56-2.99-2.75-4.67-3.89-1.4-.96-2.62-2.08-3.26-3.7-.2-.5-.34-1.01-.53-1.56-.05.1-.08.14-.09.18"/>
    </clipPath>
    <linearGradient id="linear-gradient-2" x1="-683.57" y1="227.37" x2="-682.57" y2="227.37" gradientTransform="translate(13598.22 4538.86) scale(19.89 -19.89)" gradientUnits="userSpaceOnUse">
      <stop offset="0" stop-color="#929497"/>
      <stop offset="0" stop-color="#929497"/>
      <stop offset="1" stop-color="#404041"/>
    </linearGradient>
    <clipPath id="clippath-2">
      <path class="cls-4" d="M13.86,19.17c.36.46.74.87,1.13,1.21l-.17.49-.34.3-.16,1.81h.62l.95,6.44h4.16v-5.52h4.53v5.52h4.16l.95-6.44h.62l-.16-1.81-.34-.3-.27-.45c.87-.64,1.49-1.49,1.99-2.43.51-.96.75-1.89.74-2.8l-18.4,3.97ZM22.24,2.68c-.46,2-1.56,3.54-3.22,4.74-1.38,1-2.73,2.02-4.04,3.11-.95.79-1.73,1.75-2.22,2.9-.46,1.08-.47,2.18-.2,3.19l18.89-4.08c-.19-.3-.41-.6-.66-.9-1.34-1.56-2.99-2.75-4.67-3.89-1.4-.96-2.62-2.08-3.26-3.7-.19-.5-.34-1.01-.53-1.56-.05.1-.08.14-.09.18"/>
    </clipPath>
    <linearGradient id="linear-gradient-3" x1="-683.56" y1="227.37" x2="-682.56" y2="227.37" gradientTransform="translate(13609.54 4538.64) scale(19.89 -19.89)" xlink:href="#linear-gradient-2"/>
    <clipPath id="clippath-3">
      <polygon class="cls-4" points="29.75 12.75 29.75 16.71 26.33 14.71 24.55 17.98 27.9 19.91 24.55 21.76 26.33 25.03 29.75 23.03 29.75 26.92 33.35 26.92 33.35 23.03 36.76 25.03 38.54 21.76 35.27 19.91 38.54 17.98 36.76 14.71 33.35 16.71 33.35 12.75 29.75 12.75"/>
    </clipPath>
    <linearGradient id="linear-gradient-4" x1="-756.63" y1="227.35" x2="-755.63" y2="227.35" gradientTransform="translate(-10546.93 -3160.86) rotate(-180) scale(13.99 -13.99)" gradientUnits="userSpaceOnUse">
      <stop offset="0" stop-color="#231f20"/>
      <stop offset=".1" stop-color="#231f20"/>
      <stop offset="1" stop-color="#6d6e70"/>
    </linearGradient>
  </defs>
  <g id="Layer_2" data-name="Layer 2">
    <path class="cls-3" d="M43.17,26.09c5.35.85,10.08,3.53,10.08,8.43,0,5.87-10.16,10.63-22.68,10.63s-22.68-4.76-22.68-10.63c0-1.4.58-2.74,1.63-3.96"/>
  </g>
  <g id="Layer_3" data-name="Layer 3">
    <g class="cls-13">
      <rect class="cls-12" x="40.77" y=".38" width="18.4" height="29.31"/>
    </g>
    <g>
      <path class="cls-5" d="M59.17,27.98c0,.94-.76,1.71-1.7,1.71h-15c-.94,0-1.7-.76-1.7-1.71V2.08c0-.94.76-1.7,1.7-1.7h15c.94,0,1.7.76,1.7,1.7v25.9Z"/>
      <polygon class="cls-6" points="47.44 15.03 44.3 11.88 46.83 9.35 49.97 12.5 53.11 9.37 55.64 11.91 52.51 15.04 55.64 18.19 53.11 20.72 49.97 17.57 46.83 20.7 44.3 18.16 47.44 15.03"/>
    </g>
  </g>
  <g id="Layer_4" data-name="Layer 4">
    <g class="cls-9">
      <rect class="cls-1" x=".29" y="2.49" width="20" height="26.93"/>
    </g>
    <path class="cls-5" d="M19.45,12.54c-.19-.3-.41-.6-.66-.9-1.34-1.56-2.99-2.75-4.67-3.89-1.4-.96-2.62-2.08-3.27-3.7-.19-.5-.34-1.01-.53-1.57-.05.1-.08.14-.09.19-.46,2-1.56,3.54-3.22,4.74-1.38,1-2.73,2.02-4.04,3.11-.95.79-1.73,1.75-2.22,2.9-.47,1.08-.47,2.18-.2,3.19l18.89-4.08ZM1.86,19.17c.35.46.75.87,1.14,1.21l-.17.49-.34.31-.16,1.81h.62l.95,6.44h4.16v-5.52h4.53v5.52h4.16l.95-6.44h.62l-.16-1.81-.34-.31-.27-.44c.87-.64,1.49-1.49,1.99-2.43.51-.95.75-1.89.74-2.8L1.86,19.17Z"/>
    <g class="cls-11">
      <rect class="cls-8" x="12.29" y="2.49" width="20" height="26.93"/>
    </g>
    <path class="cls-5" d="M31.45,12.54c-.19-.3-.41-.6-.66-.9-1.34-1.56-2.99-2.75-4.67-3.89-1.4-.96-2.62-2.08-3.27-3.7-.19-.5-.34-1.01-.53-1.57-.05.1-.08.14-.09.19-.46,2-1.56,3.54-3.22,4.74-1.38,1-2.73,2.02-4.04,3.11-.95.79-1.73,1.75-2.22,2.9-.46,1.08-.47,2.18-.2,3.19l18.89-4.08ZM13.86,19.17c.35.46.74.87,1.13,1.21l-.17.49-.34.31-.16,1.81h.62l.95,6.44h4.16v-5.52h4.53v5.52h4.16l.95-6.44h.62l-.16-1.81-.34-.31-.27-.44c.87-.64,1.49-1.49,1.99-2.43.51-.95.75-1.89.74-2.8l-18.4,3.97Z"/>
    <g class="cls-10">
      <rect class="cls-7" x="24.55" y="12.75" width="13.99" height="14.17"/>
    </g>
    <polygon class="cls-2" points="24.55 17.98 26.33 14.71 29.75 16.71 29.75 12.75 33.35 12.75 33.35 16.71 36.76 14.71 38.54 17.98 35.27 19.91 38.54 21.76 36.76 25.03 33.35 23.03 33.35 26.92 29.75 26.92 29.75 23.03 26.33 25.03 24.55 21.76 27.9 19.91 24.55 17.98"/>
  </g>
</svg>