<?xml version="1.0" encoding="UTF-8"?>
<svg id="Layer_1" data-name="Layer 1" xmlns="http://www.w3.org/2000/svg" xmlns:xlink="http://www.w3.org/1999/xlink" viewBox="0 0 105.7 38.04">
  <defs>
    <style>
      .cls-1 {
        clip-path: url(#clippath-6);
      }

      .cls-2 {
        clip-path: url(#clippath-7);
      }

      .cls-3 {
        clip-path: url(#clippath-4);
      }

      .cls-4 {
        fill: url(#linear-gradient-2);
      }

      .cls-5 {
        stroke-linejoin: round;
      }

      .cls-5, .cls-6, .cls-7 {
        fill: none;
      }

      .cls-5, .cls-7 {
        stroke: #fff;
        stroke-width: .75px;
      }

      .cls-8 {
        fill: #fff;
      }

      .cls-9 {
        fill: url(#linear-gradient-4);
      }

      .cls-7 {
        stroke-miterlimit: 10;
      }

      .cls-10 {
        fill: url(#linear-gradient-3);
      }

      .cls-11 {
        clip-path: url(#clippath-1);
      }

      .cls-12 {
        fill: url(#linear-gradient-5);
      }

      .cls-13 {
        clip-path: url(#clippath-5);
      }

      .cls-14 {
        clip-path: url(#clippath-8);
      }

      .cls-15 {
        fill: url(#linear-gradient-8);
      }

      .cls-16 {
        clip-path: url(#clippath-3);
      }

      .cls-17 {
        fill: url(#linear-gradient-7);
      }

      .cls-18 {
        fill: url(#linear-gradient-9);
      }

      .cls-19 {
        fill: url(#linear-gradient-6);
      }

      .cls-20 {
        clip-path: url(#clippath-2);
      }

      .cls-21 {
        fill: url(#linear-gradient);
      }

      .cls-22 {
        clip-path: url(#clippath);
      }
    </style>
    <clipPath id="clippath">
      <polygon class="cls-6" points="73.02 11.02 73.02 25.99 100.79 25.99 105.33 13.58 105.33 11.02 73.02 11.02"/>
    </clipPath>
    <linearGradient id="linear-gradient" x1="-27.23" y1="106.66" x2="-26.23" y2="106.66" gradientTransform="translate(-1348.08 379.5) rotate(90) scale(13.48 -13.48)" gradientUnits="userSpaceOnUse">
      <stop offset="0" stop-color="#3c2415"/>
      <stop offset=".1" stop-color="#3c2415"/>
      <stop offset="1" stop-color="#8a5432"/>
    </linearGradient>
    <clipPath id="clippath-1">
      <path class="cls-6" d="M59.43,4.79c-.46,2-1.56,3.54-3.22,4.74-1.38,1-2.73,2.03-4.04,3.11-.95.79-1.73,1.75-2.22,2.91-1.16,2.7.54,5.45,2.24,6.94l-.17.49-.34.31-.16,1.81h.62l.95,6.44h4.16v-5.51h4.53v5.51h4.16l.95-6.44h.62l-.16-1.81-.34-.31-.27-.44c.87-.64,1.5-1.49,1.99-2.42,1.2-2.26.92-4.41-.74-6.35-1.34-1.56-2.99-2.75-4.67-3.89-1.4-.96-2.63-2.08-3.27-3.7-.2-.5-.34-1.01-.53-1.56-.05.1-.08.14-.09.19"/>
    </clipPath>
    <linearGradient id="linear-gradient-2" x1="-27.23" y1="107.23" x2="-26.23" y2="107.23" gradientTransform="translate(591.27 2150.94) scale(19.89 -19.89)" gradientUnits="userSpaceOnUse">
      <stop offset="0" stop-color="#00aeef"/>
      <stop offset="1" stop-color="#004d6d"/>
    </linearGradient>
    <clipPath id="clippath-2">
      <path class="cls-6" d="M71.43,4.79c-.46,2-1.56,3.54-3.22,4.74-1.38,1-2.73,2.03-4.04,3.11-.95.79-1.73,1.75-2.22,2.91-1.16,2.7.54,5.45,2.24,6.94l-.17.49-.34.31-.16,1.81h.62l.95,6.44h4.16v-5.51h4.53v5.51h4.16l.95-6.44h.62l-.16-1.81-.34-.31-.27-.44c.87-.64,1.49-1.49,1.99-2.42,1.2-2.26.93-4.41-.74-6.35-1.34-1.56-2.99-2.75-4.67-3.89-1.4-.96-2.62-2.08-3.26-3.7-.19-.5-.34-1.01-.53-1.56-.05.1-.08.14-.09.19"/>
    </clipPath>
    <linearGradient id="linear-gradient-3" x1="-27.23" y1="107.23" x2="-26.23" y2="107.23" gradientTransform="translate(603.29 2150.99) scale(19.89 -19.89)" gradientUnits="userSpaceOnUse">
      <stop offset="0" stop-color="#00aeef"/>
      <stop offset="1" stop-color="#004d6d"/>
    </linearGradient>
    <clipPath id="clippath-3">
      <polygon class="cls-6" points="78.95 14.86 78.95 18.82 75.53 16.83 73.75 20.09 77.09 22.02 73.75 23.88 75.53 27.14 78.95 25.15 78.95 29.04 82.54 29.04 82.54 25.15 85.96 27.14 87.74 23.88 84.47 22.02 87.74 20.09 85.96 16.83 82.54 18.82 82.54 14.86 78.95 14.86"/>
    </clipPath>
    <linearGradient id="linear-gradient-4" x1="-27.23" y1="107.28" x2="-26.23" y2="107.28" gradientTransform="translate(-256.56 -1328.87) rotate(-180) scale(12.59 -12.59)" gradientUnits="userSpaceOnUse">
      <stop offset="0" stop-color="#231f20"/>
      <stop offset=".1" stop-color="#231f20"/>
      <stop offset="1" stop-color="#6d6e71"/>
    </linearGradient>
    <clipPath id="clippath-4">
      <path class="cls-6" d="M13.54,29.31s.18-.04.4-.19l-.4.19ZM15.81,23.09c0,.07-.14,1.42-.73,3.92-.31,1.29-.8,1.86-1.14,2.11l4.31-2.09v-5.12s-2.43,1.18-2.43,1.18Z"/>
    </clipPath>
    <linearGradient id="linear-gradient-5" x1="-27.23" y1="107.42" x2="-26.23" y2="107.42" gradientTransform="translate(811.24 -172.33) rotate(-90) scale(7.4 -7.4)" gradientUnits="userSpaceOnUse">
      <stop offset="0" stop-color="#674026"/>
      <stop offset="1" stop-color="#d5a65c"/>
    </linearGradient>
    <clipPath id="clippath-5">
      <path class="cls-6" d="M7.41,14.43c.09,0,1.86-.09,4.05-.83l4.25-2.06-.13-1.07-8.17,3.96Z"/>
    </clipPath>
    <linearGradient id="linear-gradient-6" x1="-27.23" y1="106.45" x2="-26.23" y2="106.45" gradientTransform="translate(433.42 -93.49) rotate(-90) scale(3.96 -3.96)" gradientUnits="userSpaceOnUse">
      <stop offset="0" stop-color="#674026"/>
      <stop offset="1" stop-color="#d5a65c"/>
    </linearGradient>
    <clipPath id="clippath-6">
      <path class="cls-6" d="M15.49,9.5l.08.02c.1.22,2.03,4.46,4.28,6.48,2.25,2.02,4.05,3.13,4.14,3.19l.05,2.14-.78-.22c-.01.11-.28,2.29.13,5.41.41,3.12,1.2,5.84,1.25,5.98l12.1-5.87c-.04-.14-.84-2.86-1.24-5.98-.4-3.11-.14-5.3-.13-5.41l.78.22-.05-2.14c-.1-.06-1.9-1.17-4.15-3.19-2.25-2.02-4.17-6.25-4.28-6.48l-.08-.02-12.1,5.87Z"/>
    </clipPath>
    <linearGradient id="linear-gradient-7" x1="-27.23" y1="107.61" x2="-26.23" y2="107.61" gradientTransform="translate(3029.89 -728.14) rotate(-90) scale(27.91 -27.91)" gradientUnits="userSpaceOnUse">
      <stop offset="0" stop-color="#674026"/>
      <stop offset="1" stop-color="#d5a65c"/>
    </linearGradient>
    <clipPath id="clippath-7">
      <path class="cls-6" d="M11.46,13.6c-2.19.75-3.96.83-4.05.83l.05,2.14.78.22c.02.12.39,2.49.13,5.41-.26,2.93-.94,5.23-.98,5.34l6.15,1.76c.05,0,1.04-.2,1.54-2.31.59-2.5.73-3.84.73-3.92l.08.02c.01.08.21,1.52.93,4.39.61,2.42,1.62,3.19,1.67,3.23l6.15,1.76c-.04-.14-.84-2.86-1.25-5.98-.4-3.12-.14-5.3-.13-5.41l.78.22-.05-2.14c-.09-.06-1.9-1.17-4.14-3.19-2.25-2.02-4.18-6.25-4.28-6.48l-.08-.02c-.09.17-1.84,3.35-4.03,4.1"/>
    </clipPath>
    <linearGradient id="linear-gradient-8" x1="-27.23" y1="107.38" x2="-26.23" y2="107.38" gradientTransform="translate(544.38 2140.23) scale(19.74 -19.74)" gradientUnits="userSpaceOnUse">
      <stop offset="0" stop-color="#674026"/>
      <stop offset="1" stop-color="#d5a65c"/>
    </linearGradient>
    <clipPath id="clippath-8">
      <polygon class="cls-6" points="23.99 19.19 24.04 21.32 36.14 15.46 36.09 13.32 23.99 19.19"/>
    </clipPath>
    <linearGradient id="linear-gradient-9" x1="-27.23" y1="106.52" x2="-26.23" y2="106.52" gradientTransform="translate(647.01 -137.52) rotate(-90) scale(5.79 -5.79)" gradientUnits="userSpaceOnUse">
      <stop offset="0" stop-color="#674026"/>
      <stop offset="1" stop-color="#d5a65c"/>
    </linearGradient>
  </defs>
  <g class="cls-22">
    <rect class="cls-21" x="73.02" y="11.02" width="32.31" height="14.97"/>
  </g>
  <path class="cls-8" d="M105.7,10.64h-33.06v15.72h28.4l4.65-12.72v-3ZM104.95,11.39v2.12l-4.43,12.1h-27.13v-14.22h31.56Z"/>
  <polygon class="cls-8" points="95.2 24.21 96.07 24.21 98.91 12.8 98.04 12.8 97.8 13.67 95.82 13.67 95.7 14.17 92.11 14.17 92.85 15.65 91.91 17.06 95.24 17.06 95.37 16.56 97.1 16.56 95.2 24.21"/>
  <path class="cls-8" d="M95.52,23.96h.35l2.72-10.9h-.36l-.2.69c-.03.11-.13.18-.24.18h-1.78l-.08.31c-.03.11-.13.19-.24.19h-3.18l.56,1.12c.04.08.03.18-.02.25l-.68,1.01h2.67l.08-.31c.03-.11.13-.19.24-.19h1.73c.08,0,.15.04.2.1.05.06.06.14.05.21l-1.82,7.33ZM96.07,24.46h-.87c-.08,0-.15-.03-.2-.1-.05-.06-.06-.14-.04-.22l1.82-7.33h-1.22l-.08.31c-.03.11-.13.19-.24.19h-3.34c-.09,0-.18-.05-.22-.13-.04-.08-.04-.18.01-.26l.87-1.28-.68-1.36c-.04-.08-.04-.17.01-.24.04-.07.13-.12.21-.12h3.39l.08-.31c.03-.11.13-.19.24-.19h1.79l.19-.69c.03-.11.13-.18.24-.18h.86c.08,0,.15.04.2.1.05.06.06.14.05.21l-2.84,11.41c-.03.11-.13.19-.24.19"/>
  <g class="cls-11">
    <rect class="cls-4" x="48.8" y="4.6" width="21.13" height="26.93"/>
  </g>
  <path class="cls-7" d="M66.74,22.54c.87-.64,1.49-1.49,1.99-2.43,1.2-2.26.92-4.41-.74-6.35-1.34-1.56-2.99-2.75-4.67-3.9-1.4-.96-2.62-2.08-3.27-3.7-.19-.5-.34-1.01-.53-1.57-.05.1-.08.14-.09.19-.46,2-1.56,3.54-3.22,4.74-1.38,1-2.73,2.03-4.04,3.11-.95.79-1.73,1.75-2.22,2.91-1.16,2.7.54,5.46,2.24,6.94l-.17.49-.34.31-.16,1.81h.62l.95,6.44h4.16v-5.51h4.53v5.51h4.16l.95-6.44h.62l-.16-1.81-.34-.31-.27-.44Z"/>
  <g class="cls-20">
    <rect class="cls-10" x="60.8" y="4.6" width="21.13" height="26.93"/>
  </g>
  <path class="cls-7" d="M78.74,22.54c.87-.64,1.49-1.49,1.99-2.43,1.2-2.26.92-4.41-.74-6.35-1.34-1.56-2.99-2.75-4.67-3.9-1.4-.96-2.62-2.08-3.27-3.7-.19-.5-.34-1.01-.53-1.57-.05.1-.08.14-.09.19-.46,2-1.56,3.54-3.22,4.74-1.38,1-2.73,2.03-4.04,3.11-.95.79-1.73,1.75-2.22,2.91-1.16,2.7.54,5.46,2.24,6.94l-.17.49-.34.31-.16,1.81h.62l.95,6.44h4.16v-5.51h4.53v5.51h4.16l.95-6.44h.62l-.16-1.81-.34-.31-.27-.44Z"/>
  <g class="cls-16">
    <rect class="cls-9" x="73.75" y="14.86" width="13.99" height="14.17"/>
  </g>
  <polygon class="cls-5" points="73.75 20.09 75.53 16.83 78.95 18.82 78.95 14.86 82.54 14.86 82.54 18.82 85.96 16.83 87.74 20.09 84.47 22.02 87.74 23.88 85.96 27.15 82.54 25.15 82.54 29.04 78.95 29.04 78.95 25.15 75.53 27.15 73.75 23.88 77.09 22.02 73.75 20.09"/>
  <g>
    <path class="cls-8" d="M44.4,15.07c0,1.02-.83,1.84-1.84,1.84s-1.84-.82-1.84-1.84.83-1.84,1.84-1.84,1.84.83,1.84,1.84"/>
    <path class="cls-8" d="M44.4,21.07c0,1.02-.82,1.84-1.84,1.84s-1.84-.83-1.84-1.84.83-1.84,1.84-1.84,1.84.82,1.84,1.84"/>
  </g>
  <g class="cls-3">
    <rect class="cls-12" x="13.54" y="21.91" width="4.71" height="7.4"/>
  </g>
  <g class="cls-13">
    <rect class="cls-19" x="7.41" y="10.47" width="8.3" height="3.96"/>
  </g>
  <g class="cls-1">
    <rect class="cls-17" x="13.15" y="2.01" width="25.94" height="32.11" transform="translate(-2.74 4.81) rotate(-10)"/>
  </g>
  <g class="cls-2">
    <rect class="cls-15" x="2.26" y="8.96" width="27.51" height="24.08" transform="translate(-9.19 28.87) rotate(-70)"/>
  </g>
  <g class="cls-14">
    <rect class="cls-18" x="23.39" y="12.32" width="13.36" height="9.99" transform="translate(-2.55 5.48) rotate(-10)"/>
  </g>
  <path class="cls-7" d="M24.64,32.5l-6.15-1.76c-.05-.04-1.01-.57-1.62-2.99l-3.33,1.57-6.15-1.76c.04-.12.71-2.42.98-5.34.26-2.93-.11-5.29-.13-5.41l-.78-.22-.05-2.14,7.12-3.45c.57-.76.92-1.41.96-1.48l12.1-5.87.08.02c.1.22,2.03,4.46,4.28,6.48,2.25,2.02,4.05,3.13,4.15,3.19l.05,2.14-.74.44c-.01.12-.31,1.64.09,4.75.41,3.12,1.2,5.84,1.24,5.98l-12.1,5.87Z"/>
</svg>