<?xml version="1.0" encoding="UTF-8"?>
<svg id="Layer_1" data-name="Layer 1" xmlns="http://www.w3.org/2000/svg" xmlns:xlink="http://www.w3.org/1999/xlink" viewBox="0 0 53.49 44.93">
  <defs>
    <style>
      .cls-1 {
        fill: url(#linear-gradient-2);
      }

      .cls-2 {
        stroke-linejoin: round;
      }

      .cls-2, .cls-3, .cls-4, .cls-5 {
        fill: none;
      }

      .cls-2, .cls-3, .cls-5 {
        stroke: #fff;
      }

      .cls-2, .cls-5 {
        stroke-width: .75px;
      }

      .cls-6 {
        fill: #fff;
      }

      .cls-3, .cls-5 {
        stroke-miterlimit: 10;
      }

      .cls-7 {
        clip-path: url(#clippath-1);
      }

      .cls-8 {
        fill: #2a963e;
      }

      .cls-9 {
        fill: url(#linear-gradient);
      }

      .cls-10 {
        clip-path: url(#clippath);
      }
    </style>
    <clipPath id="clippath">
      <path class="cls-4" d="M29.11,15.59c0,6.62,5.38,11.99,12.01,11.99s11.99-5.38,11.99-11.99-5.38-12-11.99-12-12.01,5.38-12.01,12"/>
    </clipPath>
    <linearGradient id="linear-gradient" x1="-25.2" y1="226.64" x2="-24.2" y2="226.64" gradientTransform="translate(633.9 5455.21) scale(24 -24)" gradientUnits="userSpaceOnUse">
      <stop offset="0" stop-color="#fd0"/>
      <stop offset="1" stop-color="#cf9810"/>
    </linearGradient>
    <clipPath id="clippath-1">
      <path class="cls-4" d="M6.9,6.28c-.99.94-1.91,1.63-2.81,2.09-1.76.9-2.68,2.38-3.29,3.57-.62,1.21-.55,2.45.2,3.68l.5.82.11-.52c.09.91-.14,1.65-.72,2.59-.36.59-.71,1.39-.16,2.41.19.36.3.83.28,1.26-.04,1.22.23,2.24.82,3.1l.11.16h2.65l-.06-.43c-.12-.87-.76-.99-1.14-1.07-.12-.02-.24-.05-.32-.08-.93-1.98-.74-3.94.58-5.83-.3.72-.27,1.41.09,2.16.57,1.2,1.12,2.4,1.66,3.59l.76,1.68h2.36l.22-.31.19-.26-.22-.23c-.06-.06-.11-.13-.17-.2-.18-.23-.38-.49-.7-.53-.49-.07-.69-.34-.93-.9-.22-.53-.47-1.04-.72-1.55-.45-.91-.55-1.75-.3-2.58.3-.99.62-1.96.94-2.97l.24-.76c1.12.52,2.37.76,3.88.76.34,0,.68-.01,1.03-.03,0,.2-.02.37-.05.54-.08.51-.18,1.01-.27,1.52-.15.82-.29,1.64-.42,2.47-.06.43-.1.85-.14,1.28-.04.49-.09.98-.17,1.47-.15.84-.07,1.42.26,1.81.3.36.79.54,1.49.54.07,0,.15,0,.23,0,.13,0,.26-.03.39-.06l.36-.06.07-.22c.12-.37.04-.64-.05-.79-.13-.23-.38-.39-.7-.46-.33-.07-.42-.16-.33-.61l.16-.79c.27-1.35.54-2.71.83-4.05l1.72,6.96h2.86l-.43-.6c-.05-.06-.08-.12-.11-.16-.08-.13-.18-.3-.4-.34-.36-.05-.49-.24-.59-.84l-.04-.24c-.27-1.66-.54-3.32-.78-4.98-.08-.6-.09-1.21-.08-1.79,0-.85.48-1.37,1.46-1.58.62-.14,1.29-.16,1.95-.18h.24c1.73-.07,2.62-.69,3.27-2.31.38-.94.84-1.96,1.39-3.1.06-.13.23-.29.44-.42.6-.36,1.23-.69,1.81-.99.38-.19.65-.64.64-1.06,0-.3-.16-.56-.42-.68-.8-.38-1.47-.59-2.09-.67-.45-.06-.89-.06-1.37-.06h-.18c-.46,0-.88,0-1.28-.06-.1-.01-.2-.02-.28-.02-.51,0-.81.28-.88.83-.05.34-.09.68-.13,1.02-.07.55-.14,1.09-.22,1.63-.08.52-.18.95-.31,1.32-.12.36-.36.53-.77.53-.06,0-.11,0-.17,0-.62-.06-1.14-.32-1.53-.76-.78-.89-1.77-1.44-2.82-2.03-.72-.4-1.64-.95-2.45-1.64-.83-.71-1.75-1.08-2.65-1.08s-1.76.37-2.52,1.1"/>
    </clipPath>
    <linearGradient id="linear-gradient-2" x1="-25.2" y1="226.64" x2="-24.2" y2="226.64" gradientTransform="translate(670.5 6042.65) scale(26.59 -26.59)" gradientUnits="userSpaceOnUse">
      <stop offset="0" stop-color="#e9c002"/>
      <stop offset="1" stop-color="#a36e08"/>
    </linearGradient>
  </defs>
  <path class="cls-3" d="M37.9,24.98c6.06,1.91,10.04,5.15,10.04,8.83,0,5.87-10.15,10.63-22.68,10.63S2.59,39.68,2.59,33.81c0-1.4.58-2.74,1.63-3.96"/>
  <g class="cls-10">
    <rect class="cls-9" x="29.11" y="3.58" width="24" height="24"/>
  </g>
  <path class="cls-5" d="M53.11,15.59c0,6.62-5.38,11.99-11.99,11.99s-12.01-5.38-12.01-11.99,5.38-12,12.01-12,11.99,5.38,11.99,12Z"/>
  <g>
    <path class="cls-2" d="M53.11,15.59c0,6.62-5.38,11.99-11.99,11.99s-12.01-5.38-12.01-11.99h24Z"/>
    <polygon class="cls-6" points="34.36 15.66 47.86 15.66 41.11 7.03 34.36 15.66"/>
    <rect class="cls-6" x="38.96" y="11.5" width="4.3" height="8.33"/>
  </g>
  <g class="cls-7">
    <rect class="cls-1" x=".17" y="5.17" width="26.81" height="20.34"/>
  </g>
  <g>
    <path class="cls-6" d="M9.42,5.55c.88,0,1.71.4,2.4,1,.76.65,1.63,1.19,2.51,1.68.99.55,1.96,1.09,2.72,1.95.46.52,1.07.81,1.77.88.07,0,.14.01.21.01.53,0,.94-.23,1.13-.78.15-.45.25-.91.32-1.38.14-.88.23-1.77.35-2.66.05-.37.18-.51.51-.51.07,0,.14,0,.23.02.44.06.89.06,1.33.06h.18c.44,0,.89,0,1.32.06.68.09,1.35.34,1.98.63.38.18.19.84-.24,1.06-.62.32-1.24.64-1.84,1-.23.14-.48.34-.59.58-.49,1.03-.97,2.07-1.39,3.12-.6,1.47-1.35,2.01-2.94,2.06-.76.03-1.53.04-2.26.2-1,.22-1.75.79-1.76,1.94,0,.62,0,1.24.09,1.84.25,1.75.53,3.49.82,5.23.09.54.23,1.05.9,1.15.07.01.12.16.26.35h-1.83c-.62-2.51-1.26-5.07-1.89-7.64-.05,0-.09-.02-.14-.03-.11.3-.27.59-.33.9-.35,1.65-.67,3.3-1,4.95-.11.53-.02.92.63,1.05.33.07.63.29.47.77-.15.03-.31.07-.48.08-.07,0-.14,0-.21,0-1.24,0-1.63-.57-1.39-1.9.16-.91.18-1.85.32-2.76.2-1.33.46-2.65.69-3.98.05-.29.05-.59.08-1.01-.48.04-.96.06-1.43.06-1.45,0-2.82-.23-4.11-.92-.46,1.43-.91,2.79-1.32,4.15-.3.99-.14,1.94.32,2.86.25.5.49,1.01.71,1.53.24.57.51,1.03,1.22,1.13.24.03.43.41.65.63-.04.05-.08.11-.11.16h-1.92c-.75-1.65-1.51-3.37-2.32-5.06-.33-.7-.35-1.31-.01-2.01.24-.49.33-1.04.43-1.58-1.56,1.58-3.38,4.24-1.71,7.67.4.35,1.25.01,1.38.95h-2.02c-.57-.84-.78-1.81-.75-2.87.02-.48-.1-1.03-.33-1.45-.4-.75-.27-1.36.15-2.04.95-1.54,1.02-2.63.36-4.5-.09.46-.17.85-.25,1.23-.68-1.11-.75-2.21-.19-3.32.73-1.42,1.62-2.64,3.12-3.41,1.06-.54,2.03-1.32,2.9-2.15.74-.71,1.52-1,2.26-1M9.42,4.8c-1.01,0-1.94.41-2.78,1.21-.96.92-1.85,1.58-2.72,2.03-1.85.95-2.82,2.49-3.45,3.73-.68,1.33-.61,2.7.21,4.05l.54.88c-.07.52-.29,1.02-.65,1.61-.38.62-.82,1.58-.18,2.78.16.3.25.71.24,1.07-.04,1.31.25,2.39.88,3.32l.22.33h3.28l-.12-.85c-.16-1.14-1.06-1.31-1.44-1.38-.03,0-.08-.01-.12-.02-.58-1.3-.64-2.57-.18-3.83.05.21.13.41.24.62.57,1.19,1.12,2.41,1.65,3.58.22.49.44.98.66,1.46l.2.44h2.8l.22-.33s.06-.09.1-.14l.38-.51-.44-.46c-.05-.05-.09-.11-.14-.17-.2-.26-.47-.61-.94-.68-.28-.04-.4-.14-.63-.68-.25-.58-.52-1.14-.73-1.57-.41-.82-.49-1.57-.27-2.31.3-.98.61-1.96.94-2.96l.12-.37c1.07.43,2.25.63,3.65.63.2,0,.41,0,.62-.01,0,.03,0,.06-.01.08-.08.5-.18,1.01-.27,1.51-.15.83-.3,1.65-.42,2.48-.07.44-.11.88-.15,1.3-.04.5-.09.97-.17,1.44-.11.6-.19,1.48.34,2.11.38.45.96.67,1.78.67.08,0,.16,0,.24,0,.15,0,.3-.03.44-.06l.12-.02.45-.07.14-.43c.17-.51.05-.88-.08-1.1-.19-.32-.53-.55-.95-.64-.02,0-.04-.01-.06-.01,0-.04,0-.09.02-.16l.16-.8c.16-.81.32-1.62.49-2.43l1.26,5.07.14.57h3.89l-.87-1.19c-.04-.05-.06-.1-.09-.14-.09-.16-.27-.45-.66-.51-.14-.02-.2-.03-.28-.53l-.04-.24c-.27-1.63-.54-3.32-.78-4.98-.08-.57-.08-1.17-.08-1.73,0-.48.14-.99,1.17-1.22.59-.13,1.22-.15,1.88-.17h.24c1.88-.08,2.89-.79,3.61-2.54.38-.94.83-1.94,1.38-3.08.02-.04.11-.15.3-.26.6-.36,1.21-.68,1.79-.97.51-.26.86-.83.85-1.4,0-.45-.25-.83-.64-1.01-.84-.39-1.54-.61-2.2-.7-.47-.06-.94-.07-1.42-.07h-.18c-.45,0-.85,0-1.24-.05-.12-.02-.23-.02-.33-.02-.41,0-1.12.15-1.26,1.15-.05.34-.09.68-.13,1.03-.07.54-.14,1.08-.22,1.62-.08.49-.17.9-.29,1.25-.06.19-.14.27-.42.27-.04,0-.09,0-.13,0-.53-.05-.96-.26-1.28-.63-.83-.93-1.85-1.51-2.83-2.06l-.08-.05c-.7-.39-1.61-.93-2.39-1.6-.9-.77-1.9-1.18-2.89-1.18"/>
    <path class="cls-8" d="M10.84,11.47l-4.58,5.84L1.68,11.47h2.97v-5.75c0-2.95,2.39-5.35,5.35-5.35,2.75,0,5.01,2.15,5.31,4.82v3.13l-3.25-2.36v-.77c-.23-.92-1.07-1.6-2.06-1.6-1.17,0-2.12.95-2.12,2.12v5.75h2.97Z"/>
    <path class="cls-2" d="M10.84,11.47l-4.58,5.84L1.68,11.47h2.97v-5.75c0-2.95,2.39-5.35,5.35-5.35,2.75,0,5.01,2.15,5.31,4.82v3.13l-3.25-2.36v-.77c-.23-.92-1.07-1.6-2.06-1.6-1.17,0-2.12.95-2.12,2.12v5.75h2.97Z"/>
  </g>
</svg>