<?xml version="1.0" encoding="UTF-8"?>
<svg xmlns="http://www.w3.org/2000/svg" xmlns:xlink="http://www.w3.org/1999/xlink" viewBox="0 0 75.63 27.83">
  <defs>
    <style>
      .cls-1 {
        fill: url(#linear-gradient-2);
      }

      .cls-2 {
        stroke-linejoin: round;
        stroke-width: .75px;
      }

      .cls-2, .cls-3 {
        stroke: #fff;
      }

      .cls-2, .cls-3, .cls-4 {
        fill: none;
      }

      .cls-5, .cls-6 {
        fill: #fff;
      }

      .cls-3 {
        stroke-miterlimit: 10;
      }

      .cls-6 {
        fill-rule: evenodd;
      }

      .cls-7 {
        clip-path: url(#clippath-1);
      }

      .cls-8 {
        fill: #2a963e;
      }

      .cls-9 {
        fill: url(#linear-gradient);
      }

      .cls-10 {
        clip-path: url(#clippath);
      }
    </style>
    <clipPath id="clippath">
      <path class="cls-4" d="M13.69.9C6.34.92.48,6.78.5,14.14c.02,7.34,5.88,13.12,13.23,13.19,7.35-.08,13.21-5.89,13.2-13.24-.01-7.34-5.87-13.18-13.21-13.19h-.03"/>
    </clipPath>
    <linearGradient id="linear-gradient" x1="-24.42" y1="441.17" x2="-23.42" y2="441.17" gradientTransform="translate(-11644.7 -618) rotate(-90) scale(26.43)" gradientUnits="userSpaceOnUse">
      <stop offset="0" stop-color="#696a6c"/>
      <stop offset=".33" stop-color="#808284"/>
      <stop offset="1" stop-color="#bbbdbf"/>
    </linearGradient>
    <clipPath id="clippath-1">
      <path class="cls-4" d="M53.76,6.69c-1.06,1.01-2.04,1.74-3.01,2.23-1.88.96-2.87,2.54-3.52,3.82-.66,1.3-.59,2.62.21,3.94l.53.87.11-.56c.09.97-.15,1.76-.77,2.77-.39.63-.76,1.49-.18,2.58.21.38.32.89.3,1.35-.04,1.31.24,2.39.87,3.31l.12.18h2.83l-.06-.46c-.13-.93-.81-1.06-1.22-1.14-.13-.02-.26-.05-.34-.09-1-2.12-.79-4.21.62-6.24-.32.77-.29,1.51.09,2.31.61,1.28,1.2,2.57,1.77,3.84l.81,1.8h2.52l.23-.33.2-.28-.24-.24c-.06-.06-.12-.14-.18-.22-.19-.25-.41-.53-.75-.57-.53-.07-.74-.37-.99-.96-.24-.56-.5-1.11-.77-1.66-.48-.97-.58-1.87-.32-2.76.32-1.05.66-2.1,1.01-3.18l.26-.81c1.2.55,2.53.81,4.15.81.36,0,.73-.01,1.1-.04-.01.21-.02.4-.05.58-.09.54-.19,1.08-.29,1.63-.16.88-.32,1.76-.45,2.64-.07.45-.11.91-.15,1.37-.05.53-.09,1.05-.19,1.57-.16.9-.07,1.51.28,1.93.32.38.85.57,1.6.57.08,0,.16,0,.24,0,.14,0,.28-.03.41-.06l.38-.07.07-.23c.13-.4.04-.68-.06-.85-.14-.25-.41-.42-.75-.49-.36-.07-.45-.17-.36-.65l.17-.84c.29-1.45.58-2.89.88-4.34l1.84,7.44h3.06l-.46-.64c-.05-.07-.08-.12-.11-.17-.09-.14-.19-.32-.43-.36-.38-.06-.53-.26-.63-.89l-.04-.26c-.29-1.77-.58-3.55-.83-5.33-.09-.64-.1-1.3-.09-1.91,0-.91.52-1.46,1.56-1.69.66-.15,1.38-.17,2.08-.19h.26c1.85-.08,2.8-.74,3.5-2.47.41-1.01.89-2.09,1.48-3.32.07-.14.24-.31.47-.44.64-.39,1.31-.73,1.94-1.05.41-.21.7-.68.69-1.13,0-.33-.17-.6-.45-.73-.86-.4-1.57-.63-2.23-.71-.48-.06-.95-.07-1.46-.07h-.19c-.49,0-.94,0-1.37-.06-.11-.01-.21-.02-.3-.02-.55,0-.87.3-.95.89-.05.36-.1.73-.14,1.09-.07.58-.15,1.17-.24,1.75-.09.55-.19,1.01-.33,1.41-.13.39-.39.56-.83.56-.06,0-.12,0-.18,0-.67-.07-1.22-.34-1.63-.81-.84-.95-1.9-1.54-3.02-2.17-.77-.43-1.76-1.02-2.62-1.75-.89-.76-1.87-1.16-2.83-1.16s-1.88.4-2.7,1.18"/>
    </clipPath>
    <linearGradient id="linear-gradient-2" x1="-22.7" y1="449.19" x2="-21.63" y2="449.19" gradientTransform="translate(650.58 11962.25) scale(26.59 -26.59)" gradientUnits="userSpaceOnUse">
      <stop offset="0" stop-color="#e9c002"/>
      <stop offset="1" stop-color="#a36e08"/>
    </linearGradient>
  </defs>
  <g id="Layer_1" data-name="Layer 1">
    <g>
      <polygon class="cls-5" points="35.43 7.35 35.43 20.88 44.03 14.11 35.43 7.35"/>
      <rect class="cls-5" x="31.29" y="11.96" width="8.3" height="4.3"/>
    </g>
    <g class="cls-10">
      <rect class="cls-9" x=".48" y=".9" width="26.46" height="26.43"/>
    </g>
    <g>
      <path class="cls-3" d="M26.93,14.09c-.01-7.34-5.88-13.2-13.24-13.18C6.34.92.48,6.78.5,14.14c.02,7.34,5.88,13.12,13.23,13.19,7.35-.08,13.21-5.89,13.2-13.24Z"/>
      <path class="cls-6" d="M11.48,16.55c-3.53-3.53-4.14-7.8-2.56-12.45-3.71.91-6.92,6.42-6.44,11.34.53,5.42,4.73,9.58,10.09,10.11,6.08.6,10.21-3.4,11.34-6.43-4.66,1.6-8.91.96-12.44-2.57"/>
      <polygon class="cls-6" points="13.98 3.57 13.22 4.86 11.73 4.98 12.73 6.09 12.38 7.55 13.75 6.94 15.02 7.73 14.87 6.24 16.01 5.27 14.54 4.95 13.98 3.57"/>
      <polygon class="cls-6" points="14.8 15.44 15.61 14.18 17.1 14.13 16.15 12.98 16.57 11.54 15.17 12.08 13.94 11.24 14.02 12.74 12.84 13.65 14.29 14.03 14.8 15.44"/>
      <polygon class="cls-6" points="23.59 11.66 22.18 12.14 20.98 11.25 20.99 12.74 19.77 13.61 21.2 14.05 21.65 15.48 22.51 14.26 24.01 14.28 23.11 13.08 23.59 11.66"/>
    </g>
  </g>
  <g id="Layer_2" data-name="Layer 2">
    <g class="cls-7">
      <rect class="cls-1" x="46.57" y="5.51" width="28.67" height="21.75"/>
    </g>
    <g>
      <path class="cls-5" d="M56.46,5.91c.94,0,1.83.43,2.57,1.06.81.7,1.74,1.27,2.68,1.8,1.05.59,2.1,1.16,2.91,2.09.49.56,1.14.87,1.89.94.08,0,.15.01.22.01.57,0,1.01-.24,1.21-.83.16-.48.27-.98.34-1.47.15-.95.25-1.9.38-2.84.05-.39.2-.54.55-.54.07,0,.15,0,.25.02.47.06.95.06,1.43.06h.19c.47,0,.95,0,1.42.06.73.09,1.45.37,2.12.68.4.19.2.9-.25,1.13-.66.34-1.33.68-1.97,1.07-.25.15-.51.36-.63.62-.53,1.1-1.03,2.21-1.49,3.34-.64,1.57-1.44,2.15-3.14,2.21-.81.03-1.63.04-2.41.21-1.07.23-1.87.85-1.88,2.08,0,.66,0,1.32.09,1.97.27,1.87.57,3.73.88,5.59.09.58.25,1.12.97,1.23.08.01.13.17.28.37h-1.95c-.66-2.68-1.34-5.42-2.02-8.17-.05,0-.1-.02-.15-.03-.12.32-.28.63-.36.96-.37,1.76-.72,3.53-1.07,5.29-.11.57-.02.99.67,1.12.35.07.67.31.5.82-.16.03-.34.07-.51.08-.08,0-.15,0-.22,0-1.33,0-1.74-.61-1.49-2.03.17-.97.19-1.97.34-2.95.22-1.42.5-2.84.74-4.26.05-.31.05-.63.09-1.08-.52.04-1.03.07-1.53.07-1.55,0-3.02-.24-4.39-.98-.49,1.53-.97,2.98-1.42,4.44-.32,1.06-.15,2.08.34,3.06.27.54.53,1.08.76,1.63.26.61.55,1.1,1.31,1.21.26.04.46.44.69.67-.04.06-.08.12-.12.17h-2.05c-.81-1.76-1.61-3.6-2.48-5.41-.36-.74-.37-1.4-.01-2.15.25-.52.36-1.11.46-1.69-1.67,1.69-3.62,4.53-1.83,8.2.43.38,1.34.01,1.48,1.02h-2.16c-.61-.9-.84-1.93-.8-3.07.02-.52-.11-1.1-.35-1.56-.43-.8-.29-1.45.16-2.18,1.01-1.64,1.09-2.81.39-4.81-.1.49-.18.9-.26,1.32-.73-1.19-.8-2.37-.2-3.55.78-1.52,1.73-2.82,3.34-3.64,1.13-.58,2.17-1.42,3.1-2.3.79-.76,1.62-1.07,2.42-1.07M56.46,5.11c-1.08,0-2.08.44-2.97,1.29-1.03.98-1.98,1.69-2.91,2.17-1.98,1.01-3.01,2.66-3.69,3.99-.73,1.43-.65,2.88.23,4.33l.57.94c-.08.55-.31,1.09-.7,1.72-.41.66-.87,1.69-.19,2.98.17.32.27.76.26,1.15-.04,1.4.26,2.56.94,3.55l.24.35h3.51l-.13-.91c-.17-1.22-1.13-1.4-1.54-1.48-.04,0-.08-.02-.13-.03-.62-1.39-.68-2.75-.19-4.09.06.22.14.44.25.67.61,1.27,1.2,2.57,1.77,3.83.24.53.47,1.05.71,1.56l.21.47h2.99l.24-.35c.04-.05.07-.1.1-.15l.41-.55-.48-.49c-.05-.05-.1-.12-.15-.18-.21-.28-.51-.65-1.01-.72-.3-.04-.43-.15-.68-.72-.26-.62-.56-1.22-.78-1.68-.43-.87-.53-1.68-.29-2.47.32-1.05.66-2.09,1.01-3.17l.13-.39c1.14.46,2.41.67,3.91.67.22,0,.44,0,.66-.01,0,.03,0,.06-.01.09-.09.54-.19,1.08-.29,1.62-.16.88-.32,1.76-.45,2.65-.07.47-.11.94-.16,1.39-.05.54-.09,1.04-.18,1.54-.12.64-.2,1.58.37,2.26.4.48,1.03.72,1.91.72.08,0,.17,0,.26,0,.16,0,.32-.04.48-.07l.13-.02.48-.08.15-.46c.18-.54.05-.94-.09-1.18-.2-.35-.56-.59-1.02-.68-.03,0-.05-.01-.07-.02,0-.04,0-.09.02-.17l.17-.86c.17-.86.35-1.73.52-2.59l1.34,5.43.15.61h4.16l-.93-1.27c-.04-.05-.07-.1-.09-.15-.1-.17-.29-.48-.71-.55-.15-.02-.22-.03-.3-.56l-.04-.25c-.29-1.75-.58-3.55-.83-5.33-.09-.61-.09-1.25-.09-1.85,0-.51.15-1.06,1.25-1.3.63-.14,1.3-.16,2.01-.18h.26c2.01-.08,3.09-.84,3.86-2.72.41-1,.89-2.08,1.47-3.29.02-.04.12-.16.32-.27.64-.38,1.3-.73,1.92-1.04.54-.28.92-.89.91-1.49,0-.48-.26-.89-.68-1.08-.9-.42-1.65-.66-2.35-.75-.51-.06-1.01-.07-1.52-.07h-.19c-.48,0-.91,0-1.32-.06-.13-.02-.25-.02-.35-.02-.44,0-1.2.16-1.34,1.24-.05.37-.1.73-.14,1.1-.07.58-.15,1.16-.24,1.73-.08.53-.18.97-.31,1.34-.07.2-.15.29-.45.29-.05,0-.09,0-.14,0-.56-.06-1.02-.28-1.37-.68-.88-1-1.98-1.61-3.03-2.2l-.09-.05c-.75-.42-1.72-1-2.55-1.71-.96-.82-2.03-1.26-3.09-1.26"/>
      <path class="cls-8" d="M57.98,12.24l-4.9,6.24-4.9-6.24h3.18v-6.15c0-3.16,2.56-5.72,5.72-5.72,2.94,0,5.36,2.3,5.68,5.15v3.35l-3.48-2.53v-.82c-.25-.98-1.14-1.71-2.2-1.71-1.26,0-2.27,1.02-2.27,2.27v6.15h3.18Z"/>
      <path class="cls-2" d="M57.98,12.24l-4.9,6.24-4.9-6.24h3.18v-6.15c0-3.16,2.56-5.72,5.72-5.72,2.94,0,5.36,2.3,5.68,5.15v3.35l-3.48-2.53v-.82c-.25-.98-1.14-1.71-2.2-1.71-1.26,0-2.27,1.02-2.27,2.27v6.15h3.18Z"/>
    </g>
  </g>
</svg>