<?xml version="1.0" encoding="UTF-8"?>
<svg id="Layer_1" data-name="Layer 1" xmlns="http://www.w3.org/2000/svg" xmlns:xlink="http://www.w3.org/1999/xlink" viewBox="0 0 27.18 27.18">
  <defs>
    <style>
      .cls-1 {
        fill: url(#linear-gradient-2);
      }

      .cls-2 {
        fill: #fff;
      }

      .cls-3, .cls-4 {
        fill: none;
      }

      .cls-4 {
        stroke: #fff;
        stroke-miterlimit: 10;
        stroke-width: .75px;
      }

      .cls-5 {
        clip-path: url(#clippath-1);
      }

      .cls-6 {
        fill: url(#linear-gradient);
      }

      .cls-7 {
        clip-path: url(#clippath);
      }
    </style>
    <clipPath id="clippath">
      <path class="cls-3" d="M18.81,13.03h0s0,0,.01,0c0,0-.01,0-.02,0M8.24,12.91h0s0,0,0,0c0,0,0,0,0,0M.97,16.11h25.22c.27-.7.37-3.09.16-4.08-2.32.91-4.64,1.83-6.96,2.74,0,.01,0,.02.02.04,1.45-.12,2.9-.25,4.35-.37.09-.02.19-.03.28-.05,0,.02,0,.03.01.05-.08.01-.17.03-.25.05-1.38.31-2.75.61-4.12.92,0,.01,0,.03,0,.04.76.05,1.52.1,2.29.14.33.02.67.04,1,.06,0,0,0,.01,0,.02h-1.67c-.35,0-.69-.01-1.04-.02-.16,0-.31,0-.47,0-.17,0-.34,0-.51,0-.14,0-.28,0-.41,0h-1.31c-.03-.12-.05-.22-.07-.32-.36-2.17-2.58-3.67-4.72-3.19-1.66.37-2.81,1.57-3.12,3.26-.03.17-.08.27-.29.27-1.42,0-2.84.02-4.25.04-.28,0-.56,0-.83.01-.05,0-.1,0-.15,0h-.97c.32-.02.65-.04.97-.06,1.17-.07,2.35-.14,3.52-.21,0-.02,0-.04,0-.06-1.49-.34-2.98-.68-4.47-1.01,0-.02,0-.04,0-.06,1.47.15,2.94.29,4.41.44,0-.01,0-.03.02-.05-2.27-.89-4.53-1.78-6.83-2.69-.15,1.44-.12,2.8.16,4.09M9.18,12.03h0s-.01-.01-.02-.01c0,0,0,0,.01.01M16.7,10.73h0s0,0,0-.01c0,0,0,0-.01.01M11.1,10.36h0s0,0,0-.01c0,0,0,0,0,.01M23.04,11.23s.02.04.03.06c-.07.02-.13.03-.2.05.06-.04.12-.07.18-.11M24.94,7.91c-1.73,1.42-3.45,2.84-5.17,4.26-.32.27-.62.56-.94.84.61-.25,1.22-.51,1.83-.76.72-.3,1.45-.6,2.17-.9-.05.05-.09.11-.15.14-.31.19-.62.36-.93.55-.82.49-1.64.98-2.46,1.47,0,0,.01.02.02.02.1-.02.21-.03.31-.06,1.23-.32,2.46-.64,3.69-.95,1-.26,2-.51,3.02-.77-.2-1.4-.6-2.71-1.24-3.96-.07.05-.11.08-.15.11M.85,11.75c2.41.62,4.79,1.24,7.17,1.85.01-.03.02-.06.03-.08-1.19-.71-2.39-1.42-3.58-2.13.12-.02.21,0,.3.03.58.25,1.15.51,1.73.76.57.25,1.15.48,1.73.72-.05-.06-.09-.12-.15-.17-1.47-1.22-2.95-2.44-4.43-3.66-.51-.42-1.03-.84-1.57-1.28-.64,1.27-1.04,2.58-1.25,3.97M6.41,8.85s-.1-.09-.15-.14c.01-.02.03-.03.04-.05.05.04.1.08.15.12.02.02.03.04.05.06-.03,0-.06,0-.1,0M2.18,7.61c.08.06.13.1.19.14,2.07,1.31,4.13,2.63,6.2,3.94.19.12.4.21.6.31-.89-1.01-1.77-2.03-2.66-3.04.03-.03.05-.05.08-.08.94.83,1.87,1.66,2.81,2.49.02-.02.04-.03.07-.05-1.53-2.4-3.05-4.8-4.6-7.23-1.11,1.03-2,2.18-2.69,3.5M8.99,1.84h0s0,0,0,0M9.17,1.49c-.09.03-.16.11-.23.16h0s0,0,0,0c-.11.02-.23.01-.32.06-.67.34-1.35.67-1.99,1.06-.59.37-1.13.82-1.7,1.24,1.91,2.32,3.78,4.58,5.65,6.84.02,0,.03-.02.05-.03-.53-1.26-1.06-2.52-1.6-3.79-.02-.05-.04-.1-.06-.14.04.03.08.06.12.09.39.66.78,1.33,1.18,1.99.28.46.57.92.85,1.37,0-.09,0-.18-.03-.26-.56-2.17-1.12-4.34-1.68-6.51-.15-.58-.27-1.16-.4-1.74.03.06.08.12.1.18.88,2.22,1.75,4.44,2.63,6.66.2.52.41,1.04.62,1.56.01,0,.03,0,.04-.01-.14-1.52-.27-3.04-.41-4.57.02,0,.04,0,.06,0,.31,1.42.63,2.84.94,4.27.01,0,.03,0,.05,0,.19-3,.37-6,.56-9.01.02,0,.03,0,.05,0,.19,3.07.38,6.13.57,9.19.02,0,.04,0,.06,0,.32-1.43.65-2.87.97-4.3.03,0,.05,0,.07.01-.14,1.4-.27,2.81-.41,4.21.02,0,.03,0,.05,0,1.09-2.76,2.18-5.52,3.27-8.29.02,0,.04.01.06.02-.76,2.93-1.51,5.86-2.27,8.79.02,0,.04.01.06.02.74-1.23,1.47-2.46,2.2-3.68.02.01.05.03.07.04-.31.7-.62,1.39-.91,2.09-.24.56-.47,1.13-.71,1.69.04-.03.09-.07.12-.11,1.69-2.05,3.38-4.1,5.08-6.15.06-.08.17-.13.25-.19h0s0,0,0,0c-.05.1-.09.2-.14.29-1.42,2.23-2.83,4.46-4.25,6.69-.05.09-.1.18-.15.26.3-.17.54-.38.78-.59.82-.71,1.64-1.42,2.45-2.13.03-.04.07-.07.1-.11.01,0,.03.02.04.03-.03.04-.06.09-.08.13-.9,1.01-1.79,2.02-2.69,3.04.01.02.03.04.04.05,2.25-1.43,4.49-2.86,6.75-4.3-.71-1.34-1.59-2.49-2.67-3.49-.06.04-.12.08-.17.12,0,0,0,0,0,0,0,0,0,0,0,0,0-.08.02-.16.03-.24-.93-.93-2.59-1.96-4.14-2.52-1.48-.53-2.96-.8-4.45-.8s-2.96.26-4.43.79"/>
    </clipPath>
    <linearGradient id="linear-gradient" x1="-186.42" y1="154.69" x2="-185.42" y2="154.69" gradientTransform="translate(4800.01 3990.86) scale(25.75 -25.75)" gradientUnits="userSpaceOnUse">
      <stop offset="0" stop-color="#fd0"/>
      <stop offset="1" stop-color="#d09910"/>
    </linearGradient>
    <clipPath id="clippath-1">
      <path class="cls-3" d="M18.03,18.7c.93.09,1.87.17,2.8.26-2.47.65-13.42.64-15.42.01.6-.06,1.15-.12,1.7-.17v-.08c-1.79-.08-3.58-.16-5.39-.24,1.53,4.04,5.73,7.67,11.09,7.96,6.49.36,11.16-3.89,12.72-8.08-2.5.11-5,.22-7.49.34M20.73,18.02c.44.02.88.04,1.32.06,0-.04,0-.07,0-.11-.44-.02-.88-.04-1.32-.06,0,.04,0,.07,0,.1M7.81,17.86c.06,0,.13,0,.19.01v-.02c-.07,0-.13,0-.19,0M22.44,17.96s0,.07.01.1c.94.05,1.88.1,2.82.15.38.02.4.01.43-.4-1.09.05-2.18.09-3.26.14M1.32,17.48c.04.14.1.28.13.42.04.17.13.22.31.21,2.02-.09,4.03-.17,6.05-.25-.19-.01-.37-.02-.56-.04-1.57-.11-3.15-.02-4.7-.33-.14-.03-.29-.04-.44-.04-.25,0-.52.02-.79.02M19.6,16.9s0,.06,0,.08c.55.06,1.1.14,1.66.16,1.44.06,2.87.1,4.31.15.4.01.4.02.44-.4h-6.41Z"/>
    </clipPath>
    <linearGradient id="linear-gradient-2" x1="-186.42" y1="154.79" x2="-185.42" y2="154.79" gradientTransform="translate(-4576.86 -3800.21) rotate(180) scale(24.69 -24.69)" gradientUnits="userSpaceOnUse">
      <stop offset="0" stop-color="#00aeef"/>
      <stop offset="1" stop-color="#004d6d"/>
    </linearGradient>
  </defs>
  <path class="cls-2" d="M26.8,13.59c0,7.3-5.92,13.21-13.21,13.21S.38,20.88.38,13.59,6.29.38,13.59.38s13.21,5.91,13.21,13.21"/>
  <g class="cls-7">
    <rect class="cls-6" x=".66" y=".71" width="25.9" height="15.4"/>
  </g>
  <g class="cls-5">
    <rect class="cls-1" x="1.32" y="16.9" width="24.69" height="9.9"/>
  </g>
  <path class="cls-4" d="M26.8,13.59c0,7.3-5.92,13.21-13.21,13.21S.38,20.88.38,13.59,6.29.38,13.59.38s13.21,5.91,13.21,13.21Z"/>
</svg>